<mxfile modified="2023-02-02T06:57:03.619Z" host="app.diagrams.net" agent="5.0 (Windows NT 10.0; Win64; x64) AppleWebKit/537.36 (KHTML, like Gecko) Chrome/109.0.0.0 Safari/537.36 Edg/109.0.1518.70" etag="E-UwJRzPRZc9WxqPbrGO" version="20.6.0" type="github">
  <diagram id="WI9T0HZ2pTsCkuznbFz-" name="Page-1">
    <mxGraphModel dx="2394" dy="710" grid="1" gridSize="10" guides="1" tooltips="1" connect="1" arrows="1" fold="1" page="1" pageScale="1" pageWidth="1169" pageHeight="827" math="0" shadow="0">
      <root>
        <mxCell id="0" />
        <mxCell id="1" parent="0" />
        <mxCell id="m2KpQHV7mSvS-4vuV7PW-17" value="" style="shape=image;verticalLabelPosition=bottom;labelBackgroundColor=default;verticalAlign=top;aspect=fixed;imageAspect=0;image=data:image/png,iVBORw0KGgoAAAANSUhEUgAAAggAAADxCAYAAACu/k+bAAAAAXNSR0IArs4c6QAAIABJREFUeF7svQd8XdWV7//TvVe9WF2WbLn3gm0wpoViOth0MCWQQEifTCYz/DOff17ezJvJTALJm8nLI2EyEELvoZjqGEyxKQbbgG3ce5FkSVbvt7/Pd4tjZFnlXunKluy9yc2Vzz1nl3X2Wuu31157rbiauoawbLEUsBSwFLAUsBSwFDhuKRAKoeq/UvfhcFh8uBQKh2T+NN9hhUIh84kLmztssRSwFLAUsBSwFLAUOF4pcAgQfDlA59+dvx1wYAHC8ToT7LgsBSwFLAUsBSwFOlAgEoDggAPHimAtCHYKWQpYClgKWApYChznFIgGINgthuN8MtjhWQpYClgKWApYCjgUQOl3LF1tMXTcXrBbDHbuWApYClgKWApYChznFOhsPWC4zjUHOPDd0UHRAoTjfFLY4VkKWApYClgKWApYgGDngKWApYClgKWApYClwBEU6AtACAaD3R9zpMJg8PA9C0t3SwFLAUsBSwFLAUuBwU2BuDjJ7XYf6uSAAIRAICi32zW4KWF7ZylgKWApYClgKWApcIgC6O6EhPiBBQiYGDwejyW7pYClgKWApYClgKXAEKGAz+c/MQECmx7eUFj1gbB2t4a1siGobS0h7W8LqS7Q/vbccVJeQpxGJrg0OTVOc9LcGpsUp6x4lxJcUtwQecm2m5YClgKWApYClgLRUuCEAwjEg24KhrWlOWRAwTu1Qa1pCKo6EFbAxJKWOnpMsDECUPDESVmeOM3LcOvCLLdOH+bW+CSXhsXHWaAQ7ayz91sKWApYClgKDHoKnFAAAeW/zxvSC5UBvVjl16bmdgtCtEkkhrmlmWluLchx67q8eI1NdhkAYYulgKWApYClgKXA8UKBEwYgBMPShuag7ivx6+WqgA76owcGHV86eCAvPk5X5Xr0t8UJmpbiMpYGWywFLAUsBSwFLAWOBwqcEAABC8HWlqB+tcenxVVBNYIWYlQy3NKi/Hj905gEjUqyJzViRFZbjaWApYClgKXAMabAcQkQOqv/2kBYv9nr032lPjUFY0/xdHec/r9R8frHUQlKclkzQuwpbGu0FLAUsBSwFDjaFDguAIIvJNUFwirzhgQYwEIQ+NLTMNktlfukX+71aldr/7YVeno545Li9MjUZJ01zC2LEY72NLbtWQpYClgKWArEmgJDGiD4wzLHEj/+8jTCxuaQavxhNQTD4jfW8skcR4yTyrztpxSKE+PMVsCm5nYwEatCW3cVx+vfxiVaK0KsiGrrsRSwFLAUsBQ4ZhQYsgChJRjWyvqgHi33a3ldUOW+sHy96Pt0t/TdogTNz3LrvlK/ltcGlB0fZxR6OCw1h8IGVGCBSHDFiQCTHpeUFBen1lC79SHFLbUGZZwcO7synJLm0rI5Kcq0RxqO2YS2DVsKWApYClgKxIYCQxIgoJiX1Qb0i90+fd4UVFtIER1VnJLi0l3FCQYIUMefyvyalebSyESXiW+wriloYh28WxvQ6GSXMt1xGpnkMlaI1Q1BFSe5lOiSUl1xxp9hQ3PosHYLEuK0cV6qcuKtH0JspqetxVLAUsBSwFLgWFFgSAKEcm9YN29q1Yq64GFBjXoiIjp7YY5Hl+Z4tKTar68XxOt/7vapxBvSNbkenZ/l0VMVfn27KF6vVgUEmMiNj9PYZLe+aAoaMHBptltLa4K6IZ86Arq/zG+2MpwyIjFO609NNVYJWywFLAUsBSwFLAWGMgWGJEB45IBPP9ruVXMUJxKwDPykOF5z01064A1rTLJLz1cGtK8tpMtzPHrxYEClvpB+MTZRS6qDmpbqUoaxIMRpWU1AtQHpe0XxKvWGxGHG16uDeqLCf9i2xsVZbj01PdlYIayj4lBmC9t3SwFLAUsBS4EhCRDu2Nymxyv8R/gAdPc6Wc9PT3Xp70YmmCBJb9QE9N3CeF2Z6zH+BhuaQnqrNmi2D75fFK/93rBxZORkxPD4OC2tCWhnW0hX53r0aWNQ+Qmu9hDNjcHD+nBhlkfX5Lk1Jj6krOYaxTdUyR2KAsXY+WgpYClgKWApYCnQgQIJCQlyuVziOzEx8dA3f8fHx5vf4vDEH4AyJAHCog2teuFgIOLtBUg3LjlOc9Pd+qQhqL1tYZ2U5hIKnd0AYiPghMiJiAxPnIoSXcZpEYtCmosgSyHtbAvrjAy3RiXFmdMQr1UFVOY7/NhkiitOHKtMDniVsn+LZlVv19dSAkqx8ZMGYOraKi0FLAUsBY5/CiQnJ8vr9RoQ4HzcbreGDRumzMxMFRUVKTs7WxkZGeJ6LMuQAwiNjY368eoSPaFCBeIiJ4aTdAnnREIk8G8OG3QEXuRqwKWAkMl882/ABffzN9f58DcgoftDE2G5QyHNTA7r/0xI1GkZLpvQKZaz1tZlKWApYClwglAgHA6rra3NfAAKHb9LS0tVV1dnrAjp6ekaP368Jk2apJSUlJhQZ0gABAjU2tqq9evXa9WqVWrIH63/LjxHpSFPTIgwUJUAQH4+OlE/Gx2vROuUMFBktvVaClgKWAqccBQIhUIGLDQ0NKiyslJlZWXmEwgEdMYZZxigwDZEf8qgBwg+n0+7d+/W8uXLDTEWLFig3KIR+kN5nH693x/TvAr9IWR3z+LT8NsJiUq2mZwGgry2TksBSwFLAUsBSc5CeuvWrXr77bdVWFios88+WyNGjOjz1sOgBQh+v1+YT1avXq2amhpNnz5dc+bMUWpqqpkMnCbgmOGT5X7jVNizyf/ozx+2JnI8cfqPiYm6tcAj9wA5kRz9kdkWLQUsBSwFLAUGKwUACvX19frkk0+0c+dOAxDmzp2rgoICeTzRWd0HJUBoamrSxo0btXnzZo0ZM8aAA5wwOjpgsP9f5QubgEmcTFjdEFKVP6TWUG/+AQP7WgEGKe44jU6MM/ESsCAUJFofhIGluq3dUsBSwFLAUqAjBYLBoNl6YGu+urpaM2bMMNsOSUlJERNqUAEEkA8D+eyzz4wzxsknn6zhw4d3ax4BJPhD0gFfSGubQlrbGNSu1pBqAu0WhWNRCNE8MdmlczLd5tQDwZas8eBYvAnbpqWApYClgKUA1vi9e/dqw4YNZqGNXk1LS4uIMIMKIFRUVOijjz4ynWc7IScnJ+LznZwsaAqGTfAkX3jgsjb2RlVOR6S64zTME2dOSdhiKWApYClgKWApcCwpgDUB/bpmzRqz4D7nnHPMqYfeyqABCOyZLF68WGPHjtW8efOiMoP0Nkj7u6WApYClgKWApcCJTAHHifHdd99VVVWVrrvuul4tCcccINDpgwcPasmSJZo2bZoxf8Q62MOJPCns2C0FLAUsBSwFLAUcCnAM8oMPPjAg4fzzz1dWVla3lvpjDhDoJIgGD0vObhI60hZLAUsBSwFLAUsBS4GBoQB+CYQO4Puss84yURi7KscUIBAV8f333zexpc8777yoj2AMDOlsrZYClgKWApYClgLHNwXQvytWrDC+CN1t68cCIBDQKS7MXkEXhcs4SHQ+f0nQo08//VS1tbUmmANxpW2xFLAUsBSwFLAUsBQYeAqgm8vLy7Vy5UpNmDDBhBPovL3fGSDQKxR+x0I9fJzrfDv/5u+oAQIPbNmyxcQ6wLxBxKeBykY18GS2LVgKWApYClgKWAoMPQqgiwmmRFClCy64wOjijqUrgOAAAuc+598dgUK/AEJLS4tefPFFg1pOP/30oUdV22NLAUsBSwFLAUuB44QCr732mpqbm7Vo0aLDFut9AQidwUFUFgQeJhDSF198oeuvv77XYxbHCf3tMCwFLAUsBSwFLAUGJQXY6n/44YdNriOiLToW/aMOEEhN+dRTTxm/A/Y8SFNpi6WApYClgKWApYClwLGhAKt8MiWvW7dOt9xyy6EgSv0FCI41ISInRZwV8Zok7COmjFjlrD42JLWtWgpYClgKWApYChwfFCAH0pNPPqlTTjnFxCNi8R4NQIAKHR0UO241RAQQyLPwpz/9ySCU4uJi65h4fMwrOwpLAUuBflLAHwzJGwwp0eNWvCu6GO086/vyWU+Uz/az2/bx44gCKHQODxBE6cYbbzSxEfoCEByg4JxgoN6IAMKbb75pjjV2doSIhMacoWzy+lXV4ldReqJhpEhL+7MB1bcFlJMSr+T4yJ+NtA17n6WApYClQF8o4AsE9WlZvT4trde543I0Iz894sVTKBTWmrJ6rSqp01mjsjSjIF3xbrtt25f3YJ+RSZL40ksvmQMEpIiOBCA4gKDzd1QWBG6+9957dfnll2vq1KlRvYsg5zUbvXpta6VhhLvOHKup+WkRM1EgFNa7O6vM8+eOzdEFE3KUkRivSHA62yJEm8Lc4sRyYCz9DQdNvRTqcQhJGziHOP922nEcRpxzpr35bXSuj3YIr8lzfLqrxzEPRTu2rtpzXrBz9IV2O98HDegXdD0slXc4bGjOuPmt4xFY7qefXO9IB+riQz0dadrV39RBXzrG5uiNplFNWHuzpUCEFGjxBbVyf62e/eKAgqGwvndqsU4dmRmxbOOZFXtq9PBnJUpPdOuWk0Zo7oiMHhdQzH18wQhxD88QqI7jbZFu+fp8PmGOJqkezxLThlw6iYmJ5hp85bRBamE+PR1jpz6C9mRmZhqe5pQbC0mi6/Jv2qLujmmKqR+ve0pqamrE9OJ++tva2mpi73Tke+pEQSIfoAUyCDqRNJC/SXaE7CkqKjLtkUqZunJzc03fO8ppxsO/CULEs9zLOPPz881YDhw4YNphjPSf4tCMsVOfQw+u01/eF5GGqYN+M37qbGhoMP0i83FycrKhHf0mcyPt8zvWgM6xiLqaotRD8MKysjKzkA8GQ0pIODy6cedjjh2BQccjj1FZEPbt2ycsCJxcgKCRllA4rJKGNr22pVLv763R2KwU/c1po40VIdLYCTDRugMNenRtiWpb/Vo4OV8XTchVZnJCjyCBl0KKzP379xvCT5kyxTAELwCQE60idcYM4bZu3WomBHUyyTDtjBkzxrxU6sdPg4k0cuRI85J5hqAWTAiu9fSyqY/noTP1ObG3mej0m/HQ91GjRh1GQyZtTU2NcR6NpsAMTCgmaMeAV4yP+pig9BlG37Fjh8aNG2cm7KZNm7Rr1y4zbvqFAOAZGJEgWjDOSSedZMZA4X1wnfa4n20qxgEDUi/neWmHnB7QgPGMHj3a9I0+MC6Yivzo9AXaO++wMy2iGb+911KgLxRo9gX04d5a/WVjudgmuGpqgS4Yl6uMJE9U1dW0+LR0e5Ve31apzKR4LZox3ICM7iylyINXXnnFBMhBRiBbyJ77ta99zcgD+AbeI0Y/98KX8B4yBzmIsnvnnXfMM6w0165dq9WrVxuedDzgAQzvvfee4UV4GFmGUqMe6kaB8UFeoJTffvttkzwIxQyPP/LII/r+97+vESNGGOe58ePHG96mb8hglCf1w/sclc/LyzN1OwsCxsHf8D73M054HvCBTNq+fbsuvPBCI28ANShe+rF582ZDe2TL559/buIDfPvb3zbyBcVJoT365ShS5NmVV15p6nHk9BtvvGHk4aWXXqpt27YZelH/ueeea+jJKp1+nXrqqTrzzDPNNfpGwkLkM/Lo4osvNuAEmQ99eV/Q8ZJLLjG0oH1+KykpMXkV8B3gg57ds2ePeRdEKOb90Edo2NtCCHqgm6A57WRlZfcLIETkpIiZYuXKj8yLueyyy8wki6SwNVDW0KYXN5Vr5b46TchO0Q0zCjUtP03uKPfamn1BrSmt0wsby1XZ5NNlk/K0YHK+clK7BgkMjElEvIYZM2YYhcOkg2kgIIoH1A1TwDAc24SBcO7A1wIlx0tBmTFBeDm8MK4TIAplBhKEKajbiQtx2mmnmRdKfdQ/ceJE8/JBj6WlpYYJCGgBaGACwjAoW+qlX0womPbjjz82zMnzPPPLX/7SMOOtt95q6maiEV4TZmTioizZe3KOnzIBYT7oANPSPoqa35lks2bNMgy3e/duM0YmNwKDuqARfeNvmIznYTiYBJpee+215tqyZctMfwE+jAl60ebrr79u6oTePEcwLRgYsMa4YCaYcf78+WZMzCuYAubkOY7qAAgAH4yfdunzbbfdZoAYY+A5mBDaUS+MhNCxxVJgoCmAXAMcrNhdo+c3HpA/FNY104Zr/tgcZSZHZtns2Edi2Fa3+PT2riq9sqVSKfEuY0k4vbhrkIDSf/nllw0PogRQouTDQZEja1CGyDIANfyI7HJkHtl2kSfwGzyEDOEMPffD9/AmShZ+Rc4hO5GVrLodHp45c6aRCw4QQeaRF+Dmm282feIY/DPPPGPkFzxOPdQBT7OoQC7wG3ISfkdZo+z5jT4hB6gHOQxvI+uQV/QL0IBsYsFK3xgf/UGeMHa8+CdPnmzkHgoY2X3HHXeYtljtUz/gyvH05xnAzdVXX21+pz76wTXkGfSFVvSFNug340aBozv4+6KLLjKyh/fw6quvGlmEgkaXcD9yFhlG/cg69AWg4sMPPzTbAIAfx3cAAMK7YkzIStI6U5CFAMBIrETI+rfeesvUMWnSZCUmJhzBEt1FU3SsCY4lwbFK9+iD0NDQqGXL3jIKkYFFsvLGcnCw2adHPivRJyV1Zkth0YxCTc1LU0If9thgylZfUGvLG/To56WqbPJq4ZR8XTmlQDkpCeqMNxggSvy///u/TRIpFBVM4Lys2bNnG8XGePhGQTqoDWTM8zATL45JBYiAmVCQ/Ma9KHKUJRP+o48+MoyJcwjMikJjIkAzFCkThTZYAbPipg7aZhJzDy+VlwHjXXHFFYYBOgKE+++/3yBWmAKmYqIA1Jj4TFwUJagfhY+iR3HTHiZI6qc+mJ/faRsmAr3CDNSJ1YM6+A1UDKJnzKzWYU7ag/lgOBQ+bUEDGAimgFYICsbHeVy2ohxQBKjkeYADzI6woS6EB39TD+AGBoB2TGzeCSCHvjNGGPSaa64xEx9BAcDivUIjGI3+0s9IrVIDrURs/ccnBRx/KKyhT64tU1hhs+g5f9yX256R7Ht2QRpAQn2bX0t3VOnFjeVKS3Tr67OKDEhIiT/cItEZIDgyjbmPfEKxwe/IB5Q+iolVLUoY5YpMgP+4BxDx17/+1ayM4W1kDLyH0kOpURdyBD6Fd5FzrIxRWCg75AeAfs2aNYcAAvzqyCVABf1iccI9yGFkDX1DbqFLWBwhg1CwztYjvI+SRiagxJE39Jd+USdKngUbsgrwQT3INuQ1R/AZB/U+//zzuuGGGwxoYRwochT+z372MyNDsDAg76ENlhHkH/chU5DHtP/cc88ZmiHTATP0DTnFvchalDzjoW2egx60AYDgN8bLWFjE8TfvCP3DuFhY0R5yDRkJWMB6jCxFb6BzWGhSr2Np6Y2zqI/2GM9pp52u1NSUqABCZ3DAv3sECEwYjjdi/gCN9iaEAQelDW16an2Z3ttVrekF6bpt9ghNy0vrtwMO3r7ryhv04Jr9xuFx4eQ8s+WQk5qozq49MBKTCnMRE4wXhuJEwbDyZ0ysQkGNKGau80IhLAqPF4hSgzmYvLw0iMUEhDFQsChzJidI8oUXXjAT2FF2rHRRXCBB0DX3MEGY4KBpkCYvEqDBbyBHJuwPfvADw3wdAcITTzxh7mPSswJgksLQIGzaAMSw2kZYoChpG4UPSIHpYFAYiDqZ+ExSJjV/M2aEBH0DSTORecfUjyAAEMDMMBITmclNf6EPJjjoiyKHmaAzYAZLB33leUAEzz/77LNmsjtmR4QSAoN2EDzcBz24B9Bw1VVXGQHHe2GcMB6mPfrG+JmXtM9YACag7UjAa28MZn+3FOiOAjhLv7OrWs9tOCBfMKybTyrUheNzlZ4Y3bZCV/UDPhraAnp750Hj05CS4NbNJxXpa6OzldLBMbszQIAv4V/4HIuiY3JHDjhbfsgH+AclzzXM2pj4sRIiG1A+8CCKFWWIHAP4s5ihfoAFfIeiApgjB5A1fOB1FLBjQQAcwLPIA6wT1IfcAXBQP3KHRQD9pT/IQxZzyCuUG9f5HXlx5513GllDfchM5BMy5vHHHzdyDp2EXER5o6CdrQfaYFHx2GOPGcsjiypkC88y5u985ztG3rIIYqEGiOrog4BuQHYiU6ADeg9ZiVzlPhQ5egGZyjiRWSh22gBAMVbGgKykbQAFQAa5DlhjrMhr5B/6Ah1E6maszOgWxkUdyF5oT38AQ/zdW6GfgDHGRt+6sqz25IfQlRWhR4DAy0PJMQCI0lMxPgf1rXpm/QEt21mt6flp+tYpIzUtPz3qbYXu2sEnYX15g/78aYkqmr26YnK+AQnZKV+ZUpx8EUxgUB4vz2EeJsnChQvNS2PC8lJ44SgqFB0E5eWhgFBMTG4mBYyH4oJBMJt1BAhMJiYjEwAgwouFAVHe1IHvBmCF32EAJi9AAwaiTdpCccLoOJd0Bgicb+V+xgGyZOKigOkDSBpFylhhfFbvTGqEAmACxY+yZbxYDpiMvFMQK2Oiv0xSlCv0YMUP48JsjBfhAdruCBAYLzRwBAk0YlLDfIAZaMQY+aDEaYv26Q/MBMODnmFMBAAMwHvCVAnNmMAINIQH98KYvDOEGNcAeuzrcY0+IlgsQOhNdNjf+0OBxi/BwbPrDwjH61tnFxnLAcrbOCerPd9dXBeeUZH+hiWh1R/Qmzuq9PT6A8YP4ZZZRTp7dNYhnwQHIMDHKDfHfweZg5xGcSIn4CN4BdnBgghA7ihBlO0DDzxgFPs999xjrItYM7mfAm+ySodX4WEUMIoOXkQBIj9Qmsg49u9ZYN10002HLI3chzJHYS5dutTIP/gU+YOcgr8pgAfkz6OPPnpIfiB7kB/IERZqyGtkE7IDWcJiABM+yhUacC+LOmQfMol/o4CRoQAJ5CkLPGQlMpgxsjBEfrBCpx7kJ787vhbQAhmHlZO2kKGMn347juI8xwKIhR4ynOehNXSBZihnx0fEqY86HJmHfANM0SfupQ5+Bxg4FlxkOWPnvfKukXuRFHQO1t8LL7xI+fl5RzzSFUDoeM3ZWnCu9QgQIDrKFcXBILpV3OGw9ta2Gp8DnHcm5KTq9jkjNCWv3ecgFA7IF2hSXJxbCZ60wxgpHA7KF2wxEzjelaK4uK/sAeFwSP5gs2G/eHeKXHFu4xT0WVm9nvnigMoavLp0Uq6unjrcOPnExbV7lDJhmKAoSiYVSor+s/LFpOQoG5iJCYaS5gWAqEGlKEuUGpMGhkJRMsmZsNTBxEZB8gKZ6Chu4kT88z//s5nYKD3qA6kyGWgHZublYylwQAgKnolG35hIbFug8PidepiorJwRALTFJGS/kYnGxKHvDrChXrY5UPj0G8XOZAUgMF5Mi45pjHq5h3ZQwDANKBxFDdpljExgpy1owJgwS1IvYAZmQWABXqgLxoTxABcIHWhEP2FAGJaVB2OAuQAV0I26AAa0B/NyL2AJQUf91EW/EEwO0HOsKAgDxsX9mCl7s25Fwlz2HkuBzhRo8Qf11o4q43MQDEnXTS/QJRPylZrgVlgBNbaVqbplm9yuROWnTVdSfJaRb6FQQM2+SlU2b5Q7Ll65adOUEp9jZBigodVfrcqmTUL+5aZOVmpCgeLkVpMvYNpDliZ6XMZSgSUhydMua5DH8BJyAnmFEnSAN45y/I0ccbYtHR52xgXPUgeLI2QTyg3Z5FjgsCICHpAd8Co8Bm9jucOqgNKnsKKFj5GdLBCQAchd/s0ePDyPskLG0AYmfxYlWF5RhsgdZAeAwtnOQG4gf6gHqywyFMCCkgdgsAhhFU4/+OY5ZDzyCaCCLOAaMgJ5CAhgHFiDWZwBllj5szijT8hYQA51odypC1pAI+hAvcg66mBBgryiX87WBCAAAIH8Qb46vgXIPmQ/fUZnoB9YfKJHaIvfuRfa8p6wOAAIUOyAEgAd16AfoIrn0EmRFGQmshqd3d2ivic/BAcYRAQQmCiYPSAOwrurEgpL++pajOnto311mpqXqltmjTDfBP9o9deppP5j7a1doQR3mibmXq789OlyxyXIH2zV/rqPtK/uQwMAxmdfqPz0GXLFeRQM+VXW8Kn21LxjGGps1nwVDZsrtytBrf6gPj/QoOe+OKC9da26dFKerp5aoLxUfBLajxsyyeg74IAXggKC2CgtFBIE55vJ53jVO4oVxQsgcE4oABqYJLx0FDITF2XvKCUmjOPHQL3swfMNI8CwHU8LgBpBv1xnwjFhUdj0y/EFgJH4IBAcKwd9o698M9kcj36YFMZiMjEhmdwUGMI5jsO4+Z3+OicCUMC0wQSmXZiBZ5yjQQAEx/cBejImGAjaOOYw2uN+nmV+cB/PcQ80g3mcZ6AddHK8pQFu0ABzGCAJkMI7wkTIM9RFvx3kDS2Y/LTF+6RuhAwonv7bYikQSwoYh0RvQMv31Ojp9fgcSNdMLdDFE/OUkehRWCFVNW3RJ/v/oN01bxu5ND3/Rp02+m+V6E5XVfNWrSn5b22vXiJPXKKmFdygOSO+pYykEfL667Vq/33aUP6MqWdi7mU6deTfKCtljLFDsN2wbGeVXtpcbrZmv262G7KiiiETS1oM9rqcLWW+AQ+RKtPBPC50AvoX4ILOiXQBBABh6/eyyy7XqFHFXQ6xt22GjiChRwvCRx+t1N69ew4dBencGuCA0wpPrSvVB/tqNSkHcFCkk4ZnGHAQCHm1s2qpPtjzG1U0rTOKf1LuQp077p+UlTxOe+ve17Lt/7+qWrYYwDAxd4HOG/fPykweq9rWnXpz20+1p/Y90+zorHN18cT/rZzUiebfDkh4al2ZdtW26NqpBbpm+nDjuGhL/yjABEGZo4xB5ZGcw+1fi9E/DQCEaZyzzdHXYJ+wFOieAmwlrNpfp9+t3GOCtXFa4epp7Y7R+CMGQz6tLXtUy3b8zFgDKJlJY7Ro1vPKS52qdQce14pd/64Gb4mxKOSnnaSLJ/1vjc2er/LGdXpu3Q2qa9ttnstIKtamLkDzAAAgAElEQVTlk/+vJuddZSyoWOFr2/x6dXOFnttQrpwUj/5x3nAVph5+rt2+v68o4MRZcZwjjxZtWGgBSGg3lm2zygcksPjr7Yhjx7Gy6OUkyeWXL9C4cWO7JUNnKwI3Otc6AogeAcK7776nysoK40XOyrVz8QVC5gzvg5/uV4LLZXwOcNxxzvG2+ev1yf57tXLv/1FboNY8npc2Q5dM/A8VZ56hVfv/oOW7/k2BUJv5LTt5vK6Y9oABAzur39Krm75jGIySGl+g62Y+qbHZ5x9CU95AyJjj7l6xU4UJIc1PrVNOsNGYmLoiwNGaNMdLO8aLlX2bQVicvczB2r9BSLKYdwng6HikY8XB8oNFCfNzx+A4MW/4KFSIvxPWg9+8v8tYJW+dVaQrp+Qr7UunxEDQq89K/6y3d/xM3mBDu4xKyNdNsxarIP0kfV76kFbs/qWafRXmt9yUKbpo0n9oYu4lKq1fo6fXXqkW/8Evn8vTZZN/r+kF15ttWArHKd/YVqmHPyuVJy6ss1u3KDXQdBRGbpuIhgLIHxQ4WzTMeSzBWE+xZBwL2YTVle3uBQsWatKk9sV0V6U3X4SIthgACM3NTWavqisUE8BrsqRev/94r2pa/bpiSr450pib2r6K9wWaDZJ+f/evDin6kRmn6ZLJ/6nC9JP1RfkzenP7XWr11yhOLhWmz9GCqf+looy5KqlfpZc33qGqlq2mrpyUibp6+mMqzjzN/BuTX1WzV4+vLTP7ddOGuXVBRosKkr5KPBHNi7b3WgpYCkRHASeCKNtvbFXxAZxjeWJfFgcstuIQnEPtlAkCkuBsnCp4eUulCtMT9c05I3RGMaZ+VvkhVTRt0PJdv9DOmreML8Gcom9p/vh/UZJnmMobv9DyXf9qfnPLoyn51+mccT9XVspYtfqq9PaOf9IXB54UjlPjcy7W+eP/TXlpU8wWAwufj0tq9djnpapu8eu22YWakeyTK+iP7gXZuweUAswRtj6Z83xY8cMLbG2zhcr2J/4ZgGbHCXRAO/Sl8ydOqBdccGGPAMHo0HD4kNOo06+O13o95vjGG0vU0tJszpN2iUIk+QMhLd1+UI+vKzOJR66bPtwg7YykeHqg+ra9Wlv2iLYcfEXxrmSdPOJOTS+40fgctPiqtKrkD9p+cIk87mTNKbpd04cvUoI7Vd5Akz4rfVAby581PgjTh9+ok4vuUFJ8pjgxQdAkzg2/sf2gRmQk6ntzR2lGfpriPe1hj22xFLAUGHgKIESw1jkhs/nGQY3jVvijIBxxlMNZjb3UobQ/zNiqW33m1NR7u2s0Mj1Rt59SrLlFwwxICIWDamgr0d7a5fK4UzQu+wIledpD9wIYGr0HtK3qDbN9OiH3EqXhiGi2EMJq9ldpV/WbxteKbYeMpJHGgdEbCOqzsgY9trbUxJNZNLNQV04uMO1ZsTbw87k/LfBe2erAmRJ/MZwQOXGGwyNOh2yHHg3L2m9+8xtjQZg+fVqPw+kKIHQGDj1uMeDsgLdsdwDBab3BG9AbWyv18hZiXkvXTCvQJROdkMhho+yrm7caUJCdMlFuV/temiFoqE01LTuMf0JmyljFu5IODQonxtqWnQYgZKWMM8ABcFDR5NXrWw+aI0GF6Qm64+RizSyI3XHK/kwS+6ylgKVAOwXwFMd5F89wnFzxZ0FY4pw6VCwKyKjdda1mMfL+nhqNyEjSrbNHaE5hRsyTx7X5iRpbr6e/OGCsFwsm52nBpHwTpdGWoUcBAzCrq80JC3ymAMgOUBhIv65f//rXWrjwil4BAhTtbis+oi2GSAGCCRna6tM7O6tNYiUcCAEJePzmEII0RtCXbYWDTV69uqVC7+2uNZaD62cUak5RhtwxamPoTUPbY0uBwU0BZ0XFqRNOpbBHy+kbTvEMhULSuL11LXp1S6VW7KlVYVqCWdnP6yFvQrTjavEHtLqk3mxpNHqDunxSni6ckPNltFhrEY2WnoPpfifpEyfJOH3F6S/mf1d+fbHodzQAoTsrgrOAj4kFwSARPN9b/XpvT43+sqE9iQlbDUx0oh32d4obNNbi1wsbD+jd3TUak5Ws66cXaubwdCX2IYRzLF6ErcNSwFIgMgrAv1gUCI7FHi2FCKWRBoCJrJWBuwuQwImtV7dWaMk2tjWTTJRYQEJfQsh37Clbsx8SwnldmZp8bNOS/ClHWTFcXA0cZWzNkVDA8VfAksDxRRx6mf84+ca6RAMQHCDgOH137kvMAILTUKMvqA/21Oihz9pPH1w3bbgum5ynYQQy6iMl6DxOkBxpJGb5hJwUfWP2CBOtMdHT7vVri6WApcDQoABWBIJqsZpyIsnFyso4kBRo933y6vmN5SYL48hhSUYOnVI0TAmezgHfI+sJPgerSuv12Oclqm726+ZZRbp4Qm57Wvu+CszImrZ3HQMKODFlCHSHBY0gSJEmQYy0u9ECBKferrYbYgoQDEgwnpQhvbWz2kx6/n3jzOFfxi2Pfi8NpiTj2eJNFXppU7lGZibrB/NG6yTrcxDpfLH3WQoMOgrg8Y0TF74J5OIYKhk52xcrAT37RZn+uv2gRmcmG5AwqzAjaktCW6Dd54DTCsQ9YDHFSTCSNFlwMOimbEw75CRWwoJARMlY+iT0FSAwwM4gIeYAwaFiWyCkd3cRMrRC/mBY108frvPHt8cvj7Tg21DZjENipUHshRntR41mFrQHYrLFUsBSYOhSAGFESFyivxFrnxXVULAkQHEsCYs3V+jtXdUaPSxJt5880oSWJ2ZCJCUYCmlteaMBB5xWMNuxk4nSGP0iKpL27D2DjwJY0Midw5FgwsvHynG3PwChs0/CgAEEXgenGz7aV6tXNleo2R/U3585xkRZjJSJ2Jt7e2eVybtQmJaoG2cWacbwNMW7+mbOG3xTxPbIUuDEpgAOjMSOJ8ALSeHYmx0KxTlq/eaOg/q0rMGs/OePzTmUmA5B62RU7eoMPEHmlmw/qHd3V+usUVkm+VO29TkYCq8+Zn1kjjh5g8jYSAj5aKImdteR/gAEp86YnmLorqNODnXMaCv315rsi6SA7ggQEAyYGUmc0bkAEAAYGyubdOaoTE3PT4/ajBezt2krshSwFBgQCiADAAl4dZOY7GicFY/FQIxjdlvAOC/mpyYoL+0rZ2z8LLCOcKyN6HqdC8+WN3rN8yOGJSkjwW4rxOKdDLU6UMRkyGSusNVATpr+llgABKcPA2pBcBohMhgWhLQE92EKHhMj2bFgIFL2di4ADM4Gk3+d7Gl2W6G/U8c+bykwOClAFMY333zTZOMjG+BQ2WroiprINbL7kQ2XbKpD5Tjn4JwZx3+vCC5Gqmf8EvDH6S9AHnIAobtXDHL6y1/+ou9973vdZos8/qeHHaGlgKUAKykylBIrgdDu3WWPHQqUwnpAmnasB7Nnzx7SYGco0Pt46CORF0ktzTYbKa/7A5CPC4AAWnrxxRcNMTAr9mXvBSdGbzAk/BUjPYuMaQ+LBmlUI7FIOHsxfDux54+wdNARoqhH6KDEvc65047PdLzW+W/n353p5Hiddr7uhMDt3GfnupNkpGNfqIvrzsf5zcTk/nJs0YzxeGBcO4ajRwGctt5++21jZiWGfaycto7eCNr5+tNPPzXRIy+77LI++1S0+ILaUdOs1Hi3xuekRjQE4tBsOtiksVkpKkhL6NXXCx8J8mYgI7ByEAa7I387GQXZ+on0XfAMsj0lJeWQTHfq4Tif45tBW9TJ9hJ5DPDmZ+XM31zjdxKAdWzXqcd5lnYAYzxLe05OBP6mLWcsBCpinNRFnY6spD7aIj4H16mXv5128I+hLtLX84wJkd3cbO5z9EGscizQx+XLl5swzRdeeGG/gigNeYDAC9iyZYvZd8EEl52dHREDdLyJdKz769q0fHe1xmSl6KzRWREpfMI0v7H1oKblp+mk4ek9hktlEpA+c/v27cbhCDDDp+ORFMZCvG2+I009TLzuyspKMwkYOxMZMxO+GExsPnh2w7S5ubkmtj0CB0YgP7hzbpbJynUYgxC2zlExJtu+fftUWlpqhG1xcbFhDif05+bNm01dPMMELy8vNzHECYvLfUS6Y9sHpmD8oFt8RGAmVnb9NYFF/bLtAycEBeABgsjs3btXF1xwwZC0IqCwADnIgr6AHJYajW0Bvb+3xhyjPHXEMH1jzsiI3v8XFY364yd7NSozWYtmDDffnm4cupEdS5cu1bZt24wMwNKBoxyyDfmCDIHfP/zwQ+M8R0ArZAZyzsmWi3zifhQ1ihVFylYR28ZXX321kSHIHGQZMpQz/wTKQu6fccYZ5v1iQUbuYW2hfSxIzAEUMwALWYQcYm7s2rVLH3zwgc4991zzLFtS9B85Nm/ePJP/A6s0sopn6S9yje2e999/3/QVEz51UpxVO6ntaXvu3Lmmn4yBeugr8pNnkMPIefpL7A7qQlaSYyRWIIF5D70ZH2HJ+1qGPEBA2RLGmdjUTJRI0alDMMDBntoWE7Fxc2WTbpszQueNze6WGToSuqyxTfd+tEetgZBumD5cp47MNIlQuiowApOQeNooRSYO5k8QJMwBEzFxibXN5Jk0aZKZUIwHpY6CZrKOHDnSMAFKG8EBIz3//PNmEjhokd9ZeZDYBvAAfZiITHwcuGAymBNrCwzL3+xxwkwwJ/Ht6Rtgg3aZaNCZMVx77bWG1vz7rbfeMn3jGY7WMMG5F7ACoyAUAC0IaBjzlVdeMWDuu9/9rnbv3m3qAaT0xeLT1wlvnztxKOAc/XK8uofayOFTAML8+fONLIjW4tbsC5qTW4SsLyLvw6wiTYjQgtDiD5qcOER6HJ+dYsJBj81O6TIMPcrxt7/9ra655hqTcZOFBimK4XGyEKKMkW/IBhQt/A6IcBYlyAl8RVC2BP1BRiL/kI1//OMf9Z3vfMcoXVbEKGdoAWBAwRNy+MorrzQyDPkKmECOcQ+pwlH+yDzaRD6igLEAvPvuu0bmIc8AJchdFDfylMXR1q1bTRjj9957z+QPYjFHP19//XUDIpCrLIZuuukmI6Opj/EwBkALiplFErIdQARIwTeAsMjIyWXLlplnbr31ViMHASeAwL4scLua1/T15ZdfNmOg3mjnjlPnkAcITE7QK0zEpIymsEWwp7bVxCzfcrBJl03K00LytCd4IqrGHwrrs9J6PbvhgDiLfMOMQp1enNkluGDyPPHEE2YyoTBR8Ew6JiaIF0XLJEcowCQwEBOVF8tEQ+k6jies2gEYKGYU/5IlSwxDLFy40IAPJjX3z5kzx0x0GIT6aIe9Kb6ZkEzaiy++2CBjmI22YBIU+d/93d+Z30HMHJ+BgZ966inTd+qlv4sXLzboGqRMHwn3CXIFLDDRaZvnL7roIjPeVatWGcb6yU9+YpgLIAPjxzr6V0Qvz9503FMAfnrttdcMz11++eV9FpLHglCsllF0AGr4Opojm+xSEjhp6Y6DJudD8bAkLZpRqEm5aRFZRp3xNnr9emtHtd7YdlDjspJ148xCjctOOYKOyDYUJ31FZiAfUM5cQ7mjMFHQyDoUJDIKeeCY93k/gLnp06ebrJ1YKVkkseB77rnn9K1vfcssjpAXgAxkPe2weFm5cqWRTSyukEcofGQZAIMFEIsa5gDPI2toC7lJ/dxHX5FZ9B3Zx/20i+xCFgN4iKuBPKN9Yg0ANFgAoeC//e1vGwsAypgxo/xpj3gE3EP9gBlAEnIdywfKG5kJgMJPAMBBXTwTrQ7rbm4i09EDjs7oa66GIQ8QMAWh7FjxRsdEYZU2ePXY2hJtqGgywUUACIRxjqZwBnldRYOeWFum1kBQ3zp5pOaOACQcHuQEYYWiZfLABKzumcygXlb2KE7ugVGYiChux5rAxAWRPvnkkwahMl4AASY0lC/KmklIPQiWRx991CB3vLhZ6QOgmOg8S/uc8oABYCroBrrHGgAgwULx2GOP6cc//rHZS2NSU/+ZZ55pAA5tOOY9GPLmm282JjTeA9YIlD0MS7uAEfoO0+A0BjqHKX/0ox8ZJuEazDhUIt9FMy/svYODAvAKgBdQGssIcwM9OngTvqVglo7GMsrqn8BypJaelJuqb84ZqYk5qVGBA2d8xJ9ZtrM9SN3E7BTdecpIkzui44oUgIDcQo6gVPmg6FDmKFCUOCt3FDHKHWDA1gGWSiyIvBdABHLg6aefNrIKefb1r3/dLH6++c1vmlU4oIK6rrjiikNbEMgtFCsWVOSWo+hZuFA3FhjqR05ivXD6DRBA2SOHqRfQgIx95plnTF+RVdSJjKLPAA7kIKCHf2PlYJ+f8XE/15F1tImMZfy0xaKJxZzTT+Q27QI4GDNymnaxLgAUkJWxKOgBQAgWl+uuu67PMnZIAwReKoSHeUB1kQqAEFEVm7z6wyd7taGiUVdPLdB104crPTEyy0HnFxgKhfVpWb3uX71fdW1+/eTMMTp9ZJY87q9AAkgOBnH28FG2IGYUNftVWEJA2TAbypVzrLxc9u25D8X80EMPGQVOWFkUMQoc4UG9mKmoB8HywAMPGMXPJIVpYTIYDPSO0maFT7ugSp4HbcLM0BHmZMvi7//+7w9ZEOgbZioAChMaAIBAACDQDgABMIM5i/HRF5xGYRjeC9sdIGz6Aur/+c9/bu4B4Dj7h7FgCluHpUBnCsBP9957r2655RZjsRsqBXkBH8KrfCItzb6AiRb76OelBhT8zWmjzbZCzz7PeCt0H7URJ8c3tlfqqXUHTO6aH5022uSOcGLQsBJGxixatMgoUeQTsgeAg3LHgoliJGcGyhCFyoICBez4YbEQQT4hH5Bj7NlTx7PPPqvbbrvNyAvHgoAVE9nXUfEitwAHrOKRN9RFG8hJrEeOo6HjUO1YFqAtWxck/UK2ATIcHwlW/5wgQRbTJ+5D+QMCkInIaRZ5FOQn/UMGMhbGRp/ZBsbyivUCGc57ZXsB5Y3MpG9si/AMcr6rGD6RvvvO96E7nAUhi8W+lCENEJiMjskc4kayl43Pwa6aZj2+tsyAAywHV08d3kOe9LCCIb/CCskdR9KTrsM7k3Fy7YEG/fmzEhMO+paTCnVGcZZSEtrvZ2KAEukjkxXliPJ0zG9MWCYHjkn8BvLkGcdhEaWMgmZ7AISOiQ2rA2Y0JhvKnokMOmdSACTYVkD5A6JArKBlmBXGoj0mLROZe6gT0MDfoGcQOHt1rPRhNOqHeZnMmAhBqM7eHmABpmK/jYkIswAa2P6gH1yHeTCzsQL44Q9/aJgNYDNQWcj6wgz2meOPAoBS+AHgfP311w+ZAcJ7KCsAfCSrSrYV6tt8WrazWi9trlBReqK+e+oojctKORSRsfPgA8FW1XtL5Qs2KSNxhFISchSnI32onCB1ODr+ZcMBTcpJNc6O47LbHRdZqKHgWFGzyEAmsapnVY1cQSYwBv5GaTE2zPbIN6wGPINyZxGCjMSHAbnAh4UGlk8smLSDzAE4UB8Kmm0YQAa+BihzZAyKnmuPP/64kXWACaymKGyszCht6kL20jdkI+Z4zPz0nXZZnCGHaZtFEP1GLtJnxoX8RRbSB+YYdeDrBbChfRarXGOs9913nxknshZAAMCgfazHWA2Qp874Y+WDwLtmiwP6IefRG30pQxog8DJ4WSjaSM57kmaV4z6Pry3V1oNNWjCpQFdNy1dWckI3+DmsJm+F9tatkDfQqML0OcpPmyG3K6FLWgdDYa0rb9AT60rV4A3qxhmFJvQpIMHJvMWkRKHywmAimIYtByY4AAFAwH4+ipnfARRMNkxuoFzGyVYFDjYoX4ADJjImIvcDPlC8OO+goDGr8W8mIegaRY3CR6EDGOgLwpP2QbS0y6oelA99aQNlj98DgAMLAcCEemEMGAn0DmIHdMCAjAewAViBGWB8GIq2YH7MdYyFOtiWiNTy05cJbp85sSkA37GiBZjeddddQ8YPgcUPFkPM7JjieysNbQHjc/Ca8TlI1jfmjDCr/e5C0bPo2V3zrj4tfUAN3hKNz75Yp436kVIT8rttCqfHt3YeNMnuaOPrs4qMlYLdVOc4Hw87RxmRD3wcL33eBbKGb+5xjkLzDH9zH4qTRQqyw/k3MhB5xHPIRmQm25xcoz7n+LXzLHVzDeXN71gNqM+5z9muoR2u8aGf3I+cdNrlGm3wrFMPdXEfzzhjoF+ObwP3Ofv93OvQxbnHGRf/pn6+ATV8x/IUAzTFeoYVChmL9aIvZUgDBBQfq2MQXm9MhEPijupmPbGuTJsPtvscXDVluNKTPN0a1wIhrz4tuV+f7LtX/lCbxudcpHPG/k9lp4zvltYOSHhm/QGTPwLnoK+NyYo4tkJfXmLnZ5h4KHVM/ACBvnqwxqIvXdXBxMUaAWAB3dtiKTCQFACw4ofws5/9LGbHyAayv9QNkL///vuNs3Bv0ROxHnxcUmeOJXKK6vunjtLswoxuLQfU3+Sr0PJdv9Da0kfkD7UoK3m8Fky5TxNyL+lxaC2+gElRzeeC8Tm6bdYIZad0vWAaCBqhgAFPrLSj8csYiL7Eok4n1gOgJNZHvgFMHKVkUddVdOFI+j+kAQKrVFYHePmyiu2pENDolS0VeuizEs3MT9ddZ41VQXpiL880aPGGO7Tl4GKFFVZB2kxdPuUPGpX1NcX1sGdHXva3dlSZ7YY5hRlmz+5oMhGDgpEog5GJnJUEfRts4CUSprH3DC0KYL5lL/sf/uEfelW2g2VkAAS2GPAF6m3rlC2Az8vq9buPdhuLwQ9PG61Tiob1CBCafZV6f9fd+qzsQbPFkJ08wci23gACPg7PfFGmlzZV6JLxObp8dIpSXO3B3U7EgvxCjmE14NM5QNSxpAlyFodIrMNsP/elDFmAwODZI+IYHQCht3CqWBA2VjTqvlX7tL++VX8zb7Q5tdCTgsKC8MHue7Ri978bgDA2a74unfw75adN75HW1P9fn+zTrtoWXVIUL9/mlaqqrOjL+7HPWAoMOQqg0NivZVuJ1S/bYzhvYeU7FoAQszQne/B96W0hMViIzfbe73//e/3qV7+KqEut/qCJWYBz4oiMRN31tXEmfkF3JRwOqbJpo9aU3K/yxrWaMfwmzSn6phI86d0+wyLrpU3lemp9meaOyNB149K16p2/mi3PE7Ww8mdOs10BQMDPAR8GfBcGw9Ypp0KwtuDL0pcypAECe+YcY8LxIxJTNRkdP9lfp4c+22/M/xxJnD8uVynxXTseAkJaA9XaVvm66r37NSn38h59EAAhJQ1t+vOa/dpW1aLrZwzXOSNSVVGy1+wH2WIpcCJQwAmvjcMtjlLs2bIdyH4uPjP4oLD9hUA9GoABj/OHH35Yd9xxh3FQGwoFgMDpi7vvvjvi7nKCCivpYuOkmGQsl/ghdBcBEfnmDTbIF2hQSkKBPC6OeB95msE4QHr9JmrscxsOaFZhhjnuODwlXvV1tcZv4EQugAPmOB/8I/DXwqqALxfAGL+sY2XJBSCweMYptC9lSAMEjrMAELAgRAIQIBAoeMWeGmMmw+nmG7NH6Jwx2Urr5ogjloNQOCAQN86J3W0t4AC5u7ZFj31eqp01LVowOU8LJ+dHHVehLy/RPmMpMNgo4OTpcL4RnjjT4hvjRNjEgRWn274GcYl0zACEBx98UHfeeWe/ws5G2l4s7usLQECR17b69drWCr26tdLEK7h9zkhNz08z+WL6Utg8qGnxaen2Ki3ZVmmOTBJXYXQm+Qn6UuPx+4wz13HWZs6hnyicVAAoYFE72uWEBwj4IRA4I1KAwAvCkrC6pE6PrS0zf18/fbjOG5tj0kD3peCYuK2qWU9/GZHxhhnDdcnEPGX0Ma5CX/pgn7EUGAoUwCkLB1X8Athnd47jshUxUNYEhPWf/vQnE9SmP3HpjyZ9+wIQnP6RaOmtnVXGkXBsVrJunllk8sVECxIAB9S1dPtBLd1RpSm5qbr5pCJzgsGCg95nA0DBicjI6TJOEkSjp3pvofc7LEDoA0AwICEQ0uflDXpmfZkavUGTkARLQlI32w3dvQrAAUcnn15fpj21bbpmWoHOH5fT56BLvb9ye4elwNCnAGZpjstyXBcTLcfWnGRjsR7diQYQoF+TL6B3dlUbn4HCtCTdMqtIU/PSenRc7Ez3Jm970KUl2w9qZkG6CSZH0qbujk7G+r0dD/VhVeDUBdvh/I1/wtEECRYg9BEgMPnIpbDuQIMe+bxEeOdijjt3bE7E8xKEvbe2RY9+XmK2FcjFcNGEXCV5+maJiLhhe6OlwHFAAQQm2w3EBiEADSFsezvS15dhn4gAATq1+AN6d1e1nl5frlHDkvS9U0dpdFZyRCTEsvrypgo9v6lcs4en6+uzRhwWPTGiSuxNhgJOamdO3GElIz7N0co/YwFCPwACLw/fAUDCw5+VGMfFvz19tE7u5YiQM++rmn3646p9JtETiUwunNC9w6PlFUsBS4GuKYApFuGJnwJhdGN9HvxEBQjtIIG8DNUmId3k3FT97NzxhywAKC5K560dri/fXaPff7zHxFP41inFJjLjQG0BnSh8Qf4GIjYSCZKgc0fDcdEChH4CBAckrC6t0wsbKzQ1L9VECHOsAA76w5Gqc67uTZVN+tOafTqzOEuXTLI+BycKo9txxp4ChMQlsQ6nG5xInrFq5UQGCM52w+qSenHKiu1PJ8IfUU1xnMMvo6PyR+ZhEV1dWq+vjc7SyAzrcxCLuehETSQUPaHsj8aRWwsQYgAQHJBA/AL210iP6uyzcVSLGN3skXLGtWNhj6600WvOHUeaIjoWE83WYSlwPFKAePcEdiF2PLlVYrViPdEBQldzBQdRotASbj2WtD4e52Usx0SUW+Y4MRJwro/VHO+ujxYgxAggdEVgPK7JW0Co1ltvvfWYHFOJ5eQ80epixdTi53hqnJI8rh5iX55olBm84yX4Gfk94LdYOXNZgHD4+ybKKkmOoAvZFW269aPLD9CdDP7WAb0AACAASURBVI9kGB3ouBwWIAwgQCC5ECFacZ7iHKstQ4cCgIOyRq/e3FmjwvQEnVWcqfQEG9p5sL9BsnySlY+oizhzxWKf1gKEw9+6k3KYAD5kLxwMEf8G+7yMZf+wIpAjAQBMDJ+BLBYgDCBA+OCDD0wEuBtvvNEy0UDO4hjWHQpLbYGAdtW26vlNlVpb0aSc5HhdPjFH54zKUnZyvFyunjJpxLAztqo+UYBMpFjurrrqql5DqEfSgAUIh1OJ46XLli0zjnJkYbXl6FIAXwSCKJFh9Dvf+U7MnXI7jsYChAECCJzTfuaZZ0xYWM6uDvRe0dGdokO7NZyviXCJDzZ/E4vCGwyaeBYHmrxaV96oj0sbVNLoM0eMCOqC9WBWQbpOH5FhYtRnJnmMI6rHFWfS1RrI0P4/W44xBdgff/nll3XeeeeZdOH95T0LEL56oY6j3KpVq3ThhRceFUe5YzydBmXzBMJ64YUXdMMNN5hcJQNVLEAYIIBAApJ33nnHmDnHjRs3UO/P1hsFBTibXdXiM34FhMzm0+wPqt4bUGWzz2wp7GvwqqLJK28wbCLHZSa6zT08g6LJTvZoVEaSRg9LUmFagrKSPCbMdrLHJQ954z0uDUvyKCMx3gAHW44+BTj2+Ne//tUETorFNoMFCIcDBCw0q1ev1vXXXx8zP4+jP0uGdovkKHnggQe0aNEic+xxoIoFCAMAEEDZZIkk6cbFF1+snJzIgycN1Is+0evlnQACntlYYRJiEeTKFwyr7UuQAFjgGtYETqCkJ7o1LjNJ+amJ2l3bqtImr1r9IQXD7b8nuOOU5HYpyROn+DgpIU7melqiW/PH5piAWTg22nL0KYBzMEfBWGWxzdDfXA0WIBwOEIjq5zhek57YlqNPAXxtSMZ15ZVXDqh/mwUIAwAQEFDsDyGgSJM5ENHdjv6UHNotAhD21bfpNx/t1a66VrO90P5/h76M0mfroDAtUROyks3xUywHmw82q7rVbywNTb6gvMGQ/MF2MOEPBBQIhL6sJU5pCW7dNLPQRMXsa26OoU3pwdF7vOxZ6V5zzTX95j8LEA4HCPh3QNvbb7+939s3g2O2DL1eIM9++9vfmngIA+kHYgHCAAAEvExZwRC85aKLLrLHGwcB/7UDhFbd8+E+7a5rNT4FBWkJJlU3lgAsBoCDzKR4s0WQ4nHJFedSeXObtla1mohyRM0MBEPy4rMQCKrZG1SL128SdvmDQTX7Q6Y+ktssmlmolHiXQPpsTbCKJWcAR8Q6r2gBlPisRJu+mDEx1/DU7+ytTzuEIaZNwrLy6etevNNOuz9GnAn41V1djAUvd8bN6jI1NVUu19G3pGzatMmYwRcsWGCCJ/WnWIBwOEDA/4DjpCSvsuXYUYBUyszvGTNmDFgnLEAYAICAsF+xYoURzjhKxTr064DNhuO44o4AYW9Dm6blpui8MVkmYyauAmwP4IyI4nNcBzjRUN7UDhBajZXgS4tDOKwgoCAQNFYECrk4tte0GKdFByAkxIX06KOPGgXJSRYiz/G57rrrzNzgwxExvMJfeeUVXXvttWY7yolUh9JH0fM833xQuvwOMAAAcFJm6tSpGjt2rOkH9fEbK2icmCoqKkwwG85ME6iLNimOaZh/o9RR+nw7ytwJo8vvKHuyypE0hr85+56WlmbudUADfaJ/69ev14svvqjy8nIVFxfrpptuMo6C/EZhTB370DFcL/c4v9MXB/j0Bdjs2rXL0AZHuv6eFbcA4XCAQO4LLAgWIBxbgXnPPfeYY44WIITDeuONN8zKBK/NWBTnqEhf0j331j5CFIBAOeecc/q9B9pbe/b33inQGSDMyEvVheOye0yp3R1AQJGxrUCsBKeQ/W5rVfMRAOHBBx80W02AAubFzp07jdkb5YWPCsqdvuFwRHAfzu8TQpXjsXPmzDHHmYYPH27upZ4zzzzT/L5kyRLjvYyz0syZM40FAisBf2O5QkmPGjXK3E/EO55hJY1wB1hgmuQcNatBlDnRB/H+R5mjnKmDcX788cfmGiF1Uf70C9BLfcT22L9/v+kfDoH05eGHHzandk4++WRz1JC66AfRRLmPD/vXOBJeeumlhywsBNuBF6dMmWJCJgNyuJdz9n3ZoqOf8CB9Baj0p1iAYAFCf+bPQD1rAUKHFdtQAwgk1aAgoPrrJDVQE+xEqjdWACFkthlYzX9lUYCO3QEEAmVRUHJYkliFo4xZ3RPDngQsgASSDaEwUdbcu2/fPp1yyinGTM4KmPtQopyO4fw5/ADoQNmyIkcJzp0715z7B4jgA4MZGEVOQBtO0mBVQOk3NDQYSwMhcrFe8CyrdMAIyp17sDxQL8AEQMOKEQBAmTVrlmn37LPPPgRksHwAfhYvXqw777zT9BdwgdUC8AA/kEhp27ZtZnyAfQKJMTbAB98odAD1Qw89ZLbmoMW8efM0ceLEqLdH9uzZc6hNCxBix+nwkbUgxI6e/anJAgQLEPozf+yzHSgQC4BAHQG2FYIhx7+xVwvC888/r5EjR5oVOUof0zyA4IknnjDHkzDTAwQ49XL55ZebVTT3AibI48EevuM/wIr9zTffNCt39tjZknjttdeM4kZpA0ZR/GQ1JC8B9aDoS0tLjZLesmWL+Y3tBawJKHX+RnFjgaBPAAT+Bjhg4gdM4Gi7fPly8yz9AhhwjBBFD/hAiXMdpcx4cV4DpPAMQIAtju3btxtrAMqFvgJIli5dasAJwAcggVWFqKOMkbHhx4P1AktKtNsMFiAcMF7ud999d0zlgAUIMSVnvyqzAMEChH5NIPvw4aZRx0kRH4S+bDG0+w0cCQ56siCgMAEEWJH+/Oc/G1CApQCfA/YOUe5cw4LASh0fBVbZ/MY1VtLNzc3GlI8SZUWPQsY6wBE+Ym1giuc57kXhotRRrvzNb2wxADJQ1gAUhDwKHJCARQPAASDASoClgXECErBG8AxK2wEIABraAaCg4Nnyw4ua62xd4HOBNYCMijwDUMFisnv3buO7wDWsGtwLYMKKAvDAisA90IZtGawjjIln6Z8FCNFxM9tRFiBER7OhdrcFCBYgDLU5O2j72x8LwpaqFnNiAadEx6mu80C72mJIdIWNQgQAoKz5G8VMbAy2CFj9s3rHrP7II4+YfXusDZjWMauz50+gH0z+xF5HKX/zm980QAGAwG9YHqgfhcteOfVRcNKjTpQsipmAKpj9H3/8cQMKfvzjH5uVOwCG1Tb+D1gMADEobbYrUNr0lxU8Wwr0g22I888/31gkGAPOlwAJCrTBj4HtEywFAAd+x58AgENGU9p67LHHDPC46667DDgg4igABl8F2gIgAAi4H1phRYm2WAuCBQjRzpmhdr8FCBYgDLU5O2j72x+AsLmyWQ1tfuF/0F3pCiAcr3EQACNPPvmkcSiMRaTCjjTFqoDfBU6UAJS+FgsQLEDo69wZKs9ZgGABwlCZq4O+n30DCGEdaPRqQ3mjmrztxwMtQJDZgsCvgVMUsT7Cy9YG1gVOWPQnfoIFCBYgDHqh1M8OWoBgAUI/p5B93KFAZ4AwPS9FF4zt4ZgjSZzCYR1o8GpTZaMJlNQjQPAGtOXLY47XT8/T+RM9crn8X6aEsu8hGgoQoCrRnajMhEwlu/sW4MkCBAsQoplzQ/FeCxAsQBiK83ZQ9vkwgFDfprFZSTq1KF2p8Z5u+0vUxGZvwIRY7hjzoKsH6lr9WlVSb4ItnTs+rHrPa9rTvNUChD7MBkJVARByEnM0v2i+Lh55sZLcSVE5KlqAYAFCH6bekHrEAgQLEIbUhB3MnT0s1HJ9q/JS4jVmWLLJvnhECcsE+OFIY1ayRxOyU5Wc0D2Q4PkDDa16bkO5Cbt8yaQkZWatV7WvbDCTZND2LRQOqaKlQl/UfqHK1krdMv4W/XDGD5Uen96eVjuCYgGCBQgRTJMhfYsFCBYgDOkJPJg63xkg5CTHqzgjSQnuIwEC4MCcWAiFlZ+WoJkFGb0mXippaNVT68pMdkgn1PLx6qR4tN5rRWuFHtrykO7bdJ/+5eR/0TcmfUMJ7siyB1qAYAHC0Zqnx6odCxAsQDhWc++4azdSgOAEQ2J7gbWqBQjHdirUemt1z9p79FH5R/r9Wb/X7NzZEXXIAgQLECKaKEP4JgsQLEAYwtN3cHU9EoDAPURJJJQyaRaiBQhPri0zqaCtBSF27z6ssLbWbdWdy+/UnZPv1LemfCuiyi1AsAAhookyhG+yAMEChCE8fQdX1zsDhOwkj4ozkpX4pQ+CAQfG7yB0KBhSNABhT22LnlhXZp69+SQn3bM7IiLgAOn8xx47/5Fd0pZ2CviCPl3yxiW6aORF+h9z/kdEZLEAwQKEiCbKEL7JAgQLEIbw9B1cXccicKCxTXd/uEfbalqVnuDW6GFJSv3S+dDxO+gYDClSgAAo+KysQc9vLFd6olu3zSrS1dOGKzm+Z4AQCAXVEGhVWUutDrTWqC0UUIonUYVJmSpMzlRGfIrccV04UQ4u0h6V3sx/db7OKTxH/zr3XyNqzwKEEwMgtDsTt6csPxoFXic+h5N2/Wi02V0bFiBYgHAs599x13ZNq1//95O9WlXWKHdcnEZmJConJUGoYJwSO2dojBQgNPsCBhxsrGxSYXqivntKsc4fn6P4LhwgHaK2BLxaVbNTSw58rvW1+9QQaBPe+wCCYfEpOilzlBYWzdGp2eOV4I4/7t5FtAMCIJxdeLZ+MfcXET1qAcLxDxBQ1jW1tdq/v0StLS0RzYtDNxkDXVAKw/2RWetMDhOf1wQHmzRpkrKzsqI6ehtdB3u/2wIECxB6nyW93MGkbmpuVtXBg/L5/FHWF5LiYCKO+EXGRJjLg4GAkpISNbywUKkpKceUiToO2BsI6eWtlXp2U4WafSFlJHo0Mj1RiS51maExEoDQFgjq09J6vbmzSv5gWHMK0/WDeaM1OTfNxEToXEIK6WBbo14sWaVXStfoQGudAuEjgzB54lzKSxym64tP01UjTlF+UmaP2w5kbnzppZc0c+ZMk+jp888/Nyud1tZWE7KYFNHkRCDbIx9WXPze+dtJuvT++++LD4Wwx9RLHgbSNrNiI2ETSZRoh/ZGjx5tQiQTBZGsktRL0qmnnnrK5FTgGrkeaJtoiRQEbccVIL/Rx/j4ePPpWCxAiI51T4RkTcwjsoTuKymRPwBnRVFcjVLCAclXKIXSe32QeUpeEn9bm+IU1sSJE3TynDnGknCsigUIFiD0e+4ZJtqxw6Bs9tijKu4GyV0n+QukcGKvjxozvc9nEvAg7CdPnmQyGSZ0Eva9VjRANwCWdta26IHPyrShssmkbM5McCs3ya1Et+sIINMbQGj1B7W9ulnv7qpWWaNXmcnxumlGoa6eVqD0xCPjJuBnUO1t1JN7P9AL+1ep1tfeh+4K7WclpOmG4tO1aNQZyk/K6DIOAONas2aNUdAkeyI/Av9G2ZMJEkVMhkUyQZKeGcVOFkmuETKZjI9kc+RZkjCRcnrZsmUmIyMJnfibJErUSarmwsJCvf7664eSRQEAqPPtt982SaOuvvpqA0y4h2RSV155pWmHLI4kdkKoM0d4jvtILMU3bZGJkvvI4kgGTKdYgBAdU5wIAIE5s3nzFh2oqFB1yKMqJSkc4UJGCijs8rbLNbMA6qGYRU9QQZ9X6f4GpQdbNaKoUGedeWa/8oVE90aPvNsCBAsQ+juHjIL4YsNGk3a3XvFqUnyPSumwBl0tkrtJ4UCWFO7ZzM0ef4g0wV6vkv3NSg37VFw80gj6tD5k4+v3wLupgFMG7+6u0bMbK7S/vs1kKMxKcKsgLVEpCe7DVundAQTG2hoIamtVkz7ZX6d99awqpLPHZOmOk0dqbFZKl6v9tqBfL5eu1n3b31SNrymiIeKwODIlW98ed74uK5xtfBQ6F5Ttiy++aLI6kgmS1T5KlxU7759VOfew2kFxTJgwwWR2BLwBBkjx7KRaBiAAFlD2ZGYEUAAcMKmSoRFFzzVAxfjx4/Xyyy8bIEJeBuo66aSTTApogCnpoLEinHLKKSZ1NVkraR9AQ794jkyN9JlsjvSJ53nmlltuMemoLUCIaJoccdOJABBaWlq1eUs7QNgWStNGZSsYIUCAX92uOHNaiZDqvRXmrCcU0LiWUhX5qjWisEBnnXWWsZAeq2IBggUI/Z57rOgACAjfzRqmXcpQyOy6915Y8WJOa0flvW0xhE1gobhQUGNaD2ikv9qkDZ4371Slp6X13thRugNRgC/CG9uq9NKmclU0tcmlOGUmeTQ8LdGs/BEclK4AglFuvqDWVzRqTWmdypt8Jgzz7OEZ+u6pxZqal9at78H2xnL9ctOL+rRmV68gLcHlMf1qC/nliXPr7Lwp+smkyzUuPf8wKwL9Qbn/7ne/MytuzP8XXnih6T//RhGz/cB1Uid/9tlnh8z6WBaYH3zz+zXXXHNoWwJASfro2tpaU/+CBQvMbyhz5tKWLVuMwv/ggw+Uk5Nj3jXWAr6vv/56AwJWrVpl7gdgYL3AsrFy5Uqz3UE6ZywTWCPS0tKM9QBgsHDhQj333HO66qqrDAixAKFvjHGiAYQtoXStVU5Esg32LkxN0ITMJLX4Q9pe16p6b7BXngQgTGzZr5HegxYgRDgtf/3rX2vhwis0ffq0CJ/o/ra4MFKli8Jlcs+zv8nqJBaFOtlTZdVzxRVXmOxxsSrsVbFXS2HvtaOpNFZtRFpPR4CwVtnaoiy1hwDquXBHssel4anxavaHdLDVrx6yHR+qzBUOaVLLPo3xVg5KgEBHmWXVLT69tLnCgIS6toDxF0hhvGntjoseV/tRw46BkoxTVItfH+2v1bryRjX6AoaSM/PT9YPTR2l6XvohcNGZusFwSC+XrtHvtr7Rq/Ug1Z2o8wummz3Vt8rXyRcKqig5Sz+dcoXmF8wQ/glOwTqAKR8Fz1zbv3+/NmzYYLZ4MNUDEDDF8mEljxWAlT/WBO4rLi4WKZZR2mwpOL4DXMP6w5j/67/+y/yGVYA68A/47W9/a4AI4OG0004zFoZ33nnHtMcWQ2eAsGPHDgMoVqxYYSwW8DL8N3HiRGNFgP+4B3+HZ5991mxLWIDQG5d2/7sFCF3TJsEVp7kFaTp/VIaJpIpFcWNVi5bsqdP+Bm+PIMEChOjnowUIXdBsKAMEY3qLi9OI9ASdPSJDM3NT1OgPakVJvdZWtqjJH+wRKAwFgOC8spoWnxZvLtfLmytV0xowpsZ4V5xyUuJVkNq+5QBgmJbfbgEh1sGH+xAkbeI4ZHK8S7OGp+sbs0dqRkH34IBnmwJt+vOud/Tkng/UEmx30qNAbwcVs52Q4UnWRcNn6vTciVpcslorq7cLcJERn2y2GW4efZaSO4Qbbmxs1Jtvvqnp06cbPwBW/qzMAQRTpkwx3yh0thjYDmAb4vbbbzeWg+XLl2vevHnauXOnTj75ZAPoTF+bmgzApR5AAUobcyoKnW0DQADgYO7cucYigV/C2LFj9fHHHx/6DYCwfv160x8UPYADgIDl4S9/+Yvo9/e//31zP9YEQMLevXt17rnnmsXA+eefb7cYopfHh56wAOFw4iW64zQ6I1FfG5GheYVpSo93H/I5gu/LGn1aXtKgNRVNxsIY6GKpagFC9BPSAoTjCCCArnNT4jU5K0nzi4eZOAGeuPZNhtZASGvKm7SyrFH7Gr1q8HUNFIYSQEAG1Lf6tWJPjZZsP6gd1S1qCbTvYqbEu5WbkqCRw5KUl5Kg/fWt2l7Tooa2gLES5Kcm6PTiTF0+KU8Tc1J7PNLIFMHn4I/b39JLJavMtgFtoPRTPUnGcdEbCig7Pk3zC6Zp+rBifVi1VR8c3GKuU1I9ibpl1Fm6c/z5SvMkHZp1KGKsCPgb8OHfKHWzZ+rxmG8UMN+O8yhbCs5zzokGnmULwSnUwf3cxykI7sNKwTWsDFzjGa45bfM39zsnEJx/O+07bQFauA9Q4Jxf5x78QXjWOW3RsT/WSTE64WwBwlf0QoZNyU7SgnFZmpKdYhK0dbahMh8bfSGtrmjU0t11Km3yHWFNsAAhujnI3RYgHCcAgZUzTHTOyGHGasBefGcmCoTCKm306pPyJr1f0qDqtnbl1bEMJYDg9NsbCGp9eaPe3lWtT8vqVdHkE2NFsJBwie2HJl9QwVDYWBWm5Kbq3DHZOr04S8PTE812RG+lztes+3cs01/2f2wAgivOpSnphTord4o21O3TlsYyzS+YrmkZI/RR1TZ9XL39MEsDAOG20efo9nHnHgYQemv3ePndAoTo3qQFCF/RK9Xj0sj0BM3OT9VJeakakZZgAL3DtWw5NgeC2lPXpk8rm7WuslkHv7QodqS6BQjRzUELELqh11DbYoBRMMHhtDN/VKam5yQrrZNHP6vtQCikyma/Pipr1PulDapuDRyBsjsCBEzLY8eMNqvMngpmb7zYj2XxB0Mqb/KamAYr9tRqc1WTGrysiNt7xTHIovREnT4qS2ePztL47BQDHiINicwJhsd2r9BDu99RU8BrhFN2YpouLpilWZmjdNDboGHxqXqnYoNW1+4UgZQ6WjmzElL1NxMu1jXF85ToOvJEiVkBNTYafxdW4TgX1tTUGD8E9vdxLOTDMUNOB7Dqdwrvh2c5nUDhWRwbuY9n+a2iosIcgcSZ0FnZY2XgpAOr//z8fGNloGAVoG22D7jOu+VeLANYHvA/oL84J8Ir1E0dzJfO8Q+cPlqAcCR3+EN+1fvqNSxhmOI7zQkLENrpBXYfm5FkAEJNW0AJ7jjNyk3RrPw05SR7DOgvafSZrYVN1S0mGys8jc9Vk//wY+EWIEQvoa0FoQuaDTWA4I6TQdXDEj1q8Qc1LjNJZxSla9ywr9IhN/uD+ryyWasONOpAk88IdCwIbD10LB0BAibk7du2mrPtKJeuytq1a3XXXXeZc/adCzH4mwJNSo9PP0IARj9Ve3/CHF/0B1XS0KbVpXV6d1eN9tS1KCMxXnNHDNO5Y7I0LT/dBFhyTjr0Xmv7HWzTvFexSXdvXqyy1lpzDZ+DzIQUXVF0is7MmaRn963UypptAkx0LICJiWnD9Y9Tr9K8nPHG+tC5cKwR5z5OIgACXn31VXOCgFgH7OdzegAnQEDATTfdZBQ3BXDAaQP8C7797W+bd4VPA8/iw+D4BPAszo34HjjHD3FyxDERsMEJCRwOmRcoJ6cOHBg5vYCfA6ADB8UXXnjBfNMvfBjwdwB0cIIBP4quigUIR1KlpKlE//nFf2pixkQtHLVQxWnFh/bVLUBopxeyDYvoaYXpaguEta22RfsbfUbenV6UZgKmfXSgUQdb/CI/C2ngWSzsqGtTXaeTDRYgRCrtvrrPAoTjACCwvXBSbopOLkhTdatfqyuazMr5ayPSdWZRhup9Ab22s1Zba1uVGu9WUVp7LIXtNW2q9x0eBbAjQGDlWFlZoXPOPtucze+qMIFwXsNL3ijScFiBUEAlzSV6ZuczykvK000TblJa/NE7Kmn28YMhEydha1WzspI8mpyXpsyk+KiBQccxV3kbzTHHZeVfHGYdSHYlKDcxTeVtdfKHjwxmhcXgihEn64cTLlZ+Uvsqv2PBuQ9AwGreOapIMCIUM/EMiFFAfAHex5NPPmnAGM6J7PnjSIiCBhj89Kc/NUcNqY9TDRSsAg8++KCuvfZabdy40URNnDZtmrESvPXWW4dW/DzPUUgsAERXxCkREIAj5Ne//nVzYoLfsGIAVgAOgA3q4BgkoIZPd0CyJ4AQDLXPQbfrK6vIiRBqeXv9dl259ErtbtyteXnz9M3J39SC4gWGZyorKnXvvffq7rvvPmyuEM67yd+kspYyFSQXKCsxKyqpD29wEob3CaA8lqVjHITujjkCEE7KTdVZIzKU5HHJHwqZBc7G6haVN+OMGFJGgkfDUxOUGu8y1gO2E7fXtlqAIOnpp582fHnppZf26VVbgHCcAIRZeSk6vTDDbDXggIi57UCzzxz945gj5rbcZBC2RwlurgW1pbo1ZgDhtNNPU4OvQdvqt+nNkjf18NaHjen0P07/D51XdF6Xq+Y+zdgIH9pYu1FfVG/QFaOvVJI70axwe/c06LlyTiOsqdmlezYv1s6mSpN7obdCbgbyMvxw4iUmL0PHI47Os1gBOHnAcUcUOEqdmAScLiBOAdYCVudYBVDIADKCJVEw+5eUlJhn77jjDhNe+d133zVbFZyMwDLAqQMcG1HwnGbgaCRWMp4ZNWqUqQeFsWjRIvMcpxnoD6Dw0Ucf1XXXXWeOEwNM2PLA6oClgUiKjz32mAE2KB4sG90Byc4AAYtMo69Ruxp3aU/DHs3Mmamx6WMPzZNYA4Q//PkPOv2q05WVF51C7e399ud3QPTPV/9cuxt2G3piaZuXP0/XjL1G01zTtOSJJbrn3+8xliqscZVtlVpVuUpv7HvD0OoH03+g7MSuLXvd9WuoAwTGRdwSths+Km1QIBw21gRPB58ECxC+evsWINg4COZonwMQQNkUVtB7G9q0qrzJ7OONTEs0x/qcPfdYAoTZp89W0sQkLStdpqUlS7W+er38Yb+uHn21fjr7p8pKOPpC+bHtj+npHU/r02s/jXqV1ZPQZ/tgWcV6Pb7nfRE4yfflKYWunol3uTUprVC3jjlbFxTM6DKKovMcCptoiih19vI5jshqnZU91hm2C9jOYXuAWAYdY8gTHXHx4sXm+COre3wCsDD89a9/PRROmZU9pw+wLLCVgE8BxxHZwqBgeSBAEvWywqRdLA0ImAsuuMDUyXZFenq62X7AegFAIH8E1gQUek9xThyA8L9O+V9q9Ddqa+1WM1/eLntb0zOn6x9n/6NGpo08FEQq1gDhV4/8SiVTSxRO6T3qXn+UfjTPtgXbjPWAAgigBMNBeVwenZJyipK3JOueH92jOm+dPqn8RK/ve10rylcozZOmX5/2a11SfIk8cb2EGe7UWldj6QAAIABJREFUIRPfYvUqAwjv/Nad0XQ35vcyH7du2f7/2jvzIKmqe4//hnVm2IZFFBRkESKLIgguiIAEAygiqBjFGJdYFa1KLP/Ie/WeVal6vrx6xrwqtfBZpTEmBvUFFUUUAy4ENbihIjjsi2yyI/sAs/Lq88MDPWP3TN++S/ed/p2qrp7pvvfc2997zu98z2+Vnbt2yeoTbZMmSqqrQXA3cbiiWj7afkidkUmalFg3xQiCEQTdsViipJMDIRlB4HPMDYu2HdLJ07V1i1oOeYERhP95RHZ13SVL2i6RJXuXqPqT3WHTgqYyuONg6VPSJ2n9gcClTZ0O1xxYI/vK9wVOELgMOREWf7de3ty+RJbt3ywHKss01wFLD2IeLUFJ81ZyQUl3mXLOMBnSvqe0bl5YLw6JBIFFG9MBToIs3GgMyGSIZgFTA06hjH8Wc3b8jiCgQcCXgWNRK3IuyZJIbgTJQAsA0SBFMxoFtBM4NLJ7xZmRBZ+/SZ7EAkIfJG4iiRIN7QNaCEcQSOyENoF74Dg0HZgpkrXRb46WQR0HyU09b1IS+d6378nqg6ulbfO28uDgB2Vyj8nSIiE/xNYtW/X+Ro4aeSq/Q6ZjZtfOXfLMC8/I0GuGSknHkky7Cfw8yAAkobhZ8amxgeNieXW5VB6ulFmvzZLRU0fLP3f+UzUHO4/uFEoaXdzpYrm97+1qivDaGDf4k2BCwockm61JVRNpsaelFBxqJmtPtEtJEC743sRA4jcjCN6emGkQTIOQkiCghvvntweVGHRRgnB6cAVGEP7wiHQY2EG2dt4qb2x6Q1YfIPa/XHc247uNlwndJ2SFICzcvlC+2PNFKAQBFMlvsO3oPll2YLOsOLhVqzpWnKiSoibNpUtRexnQ7hy5qKSH/o0moaGGqYBiSiQ7YmH+6KOP1CkRlT2EAHMAan8iB8aNG6emBbQCqPwp3ARZhkiQ5wANAH4ImCjQSNAXCY7wFYAwoB3gb5wOWYRxUrzyyiu1T16kXsbMQKpmtBWu5gI+CbTS0lIlKJhD2Olj1oBYUCGS1MvJ2hVzrpDvjn8nrZq3EmzvZZVlSiTPLD5TRp41UjoVnq7bwPlEXkB8uE9+s58G0dpZulOemPaE9Opy8jfkSnN5LhLvh8927Nwhd/3uLmkxqYV8sOMDOVp5shwyfho92vSQ3m17q6bBczsh+twZA926d/N8epAntC1oK5fLcOle1VPWS/ukBAGZ1b1NS3VSJCts8+9zfaTSIOCguPd4lWw5VK6m1cRmToren575ICTBLG5RDMT79+tYJJd3aVMr/0EqgkDK5YPllbJ+/3E5XGcSZeKkyOJywdALZN2hdfLaxtfk/9b/n2w9slVGdR0l04dPl/PanbSXR9meWP6EPLniydAIAr+FBY7Q0WPVFVJWdVwdFJsXNJXWzVpqtsRmaRCDREzwRVBfiYICXaj5Hy0BnzEmcSzkO3bsLCJ8zksdQ6uqdHfv/nbnumRImBQSS0W7MElXupnruKRH9Mn5LvER98h1XXgkn+ti1bSpnkMffE8fvCdrEITdx3YrZpsPb1ZHVo49p9U5Mvys4dK2Re1U6UcOH5Ed23dI17O7SqvWrXwNnYNlB2XlmpUy7dJp0rK4pUbUQFRozukP7UVh09MJrHxdMICTD+07JGvfXSt333e3vLbpNXl5/cuy+chmxe/Ks66Uf7vo36RLcXIyVt/lOX956XJZt36d3DDlhgDuNPMuqiqq5cCWA1L23XFZk8LEQO9oSPGf6t+xWPq2L1K/KnyqEk0MzMajVTWy/UiF7D1WJcera06FOLs7NILg/VkZQWgEBIGfQDKRPu0LdRJ1Lm4uzZo0UUeeRA0CshuGTVpiHBiJYKhbnyETguCiGBA+qEdX718t01dMV+er+/rfp05XdeO8vQ9Vb2c8vvxxmV46PVSC4O2O8vtofBCGnTFMpvaeKs+vfV7mb50vW8q2SJeiLvLfl/y3XNv92lr29M1bNqtmYvSo0apF8NO279wuD7/4sOzss1OWly9X0xPEgPFKgxhAVBxp8HOtoM6tLKuUy767TJ749RNqhli1f5U8u+pZeWfbO+rI+V/D/kvNMl7nVdycFBPxxAG7Z9uWmiwJc8MXu8o0qgHH60Pl1ZohFuKQqrijEQTvo9MIQiMhCLqjKxDpWNhc+nUsll7tWqoDz6c7DqsPwhlFFG2qlt1HKzX/QUW1E4+1AahLELZs3qQqbuc1XxcuvNgpwIX9OrFBFL7c+6UQwjb0jKFS1CzaREpGELwLgzDPSIxiwLzw+Z7PZc6mOep0N7rLaPmXQf8iZxWfrv4YtJPiM888I5NumyQrTqzQKJtPdn0i5CGoqKmQ/h36y79f9O8yoP2AMCHw1Pfe3Xvl7Zlvyx8e+sOp85hTH+/8WOZ/O1+6FndVP4TGHsVQFzRkWfuWzaRLq+ay/3iVVFKBluRg5dX6d33NCIKnIagHG0FoRATB/ZTCpk3k7DbNpVNhc9l6uFw/Jp0wGgXUcPXNo0SCgC386NEy2bN7dy2v+UTIsH//9Kc/lXPPPfcHSLJLQ5XMLieV6tn7kE3vDCMI6eEU1VHJwhz3l+/XiJdNhzfJyC4jNXTPjZMwCAJx/527dJY9x/YoQYEoLNi2QLq26qpRAWg4cqWlSpTEnDpQcUDAjjwIXvOL5KoGYU1NaymVDlrumXtsqJ2sMXOycXzDAccizWqqpfexb+Xs8r1W7rkhgL//3ghCIyQI/CS0CeQrJxUpDYVqdRqzKJEg4E0/ZMhgKW4gjbKzk6c55iI57H9X/K889vVj8umUTzPy9o7kJvPkIpDEsW+Nlau6XiWEOSY2PPmPVR3TqJdELVNYBMFVvOSeWGSXfrdUtpVt01wdOP/lSmsok6IuogWnwyPTve9cJQi7alrITimSquoaqayskhM1aQirdH/098c1PVEjHSoPSrvqMjm7y1ky4oorNHV4ttrvf/97zW+Cs29YzaIY8iiKYYO0ka3SShd6dRRLg2l7HXgFJ07IOeW75cyqg+pRf8klw6SNTy9yr/cQxPEz18+U//jyP+SlsS9peJ217CGAw+qtC26V2/rcpj4p6bSwCYK7B3bkqO7RcmUUFZDOj8ngmIYIQgZd6im5RBBwvF2zZq18u22b+kaVV9doFA4OuuloETLBgA0Qm6fePXtouXPCfbPVjCB8jzwPm6Qs9SVS8fqQ8iUPAiFapctXyN69e4UM/5ROYBKVl58sCRxGa0qylgKRbt1OhsW1bnXai9xdM9FkkOyzMO7LS59f7f1K7nz/TrntvNvkgQsfkBZNWng53Y4NCAF26s+tfU6eXP6kPDr8UdUipNOiIgjp3Es2jskHgkAEzO7du2Xjxk1SdvRog+SgsqJCjpSVnYq2qftciKohkVdiIbO6xyC3qDEzcEB/DcmN2vSZeD9GEIwg+JYthJtt2rRZtmzdquFkFRXlSg5cSFrdC6BZgECkIg9NmzaRli0LT4WsJbtBJg3M+kd9+0rv3r00PA5yR2w8MfDE3w8fPlxrBFCsh9z9JNohGQ8x6yTk4XsmKklZUOOR3teFyfkGJY0OSE370JcPyaKdi9QBbUSXEarCdhnr0ujCDvGBAC6wx6uOq6Pqv372r1pr4HfDfqfpt9NpRhB2JK3FkA529R2TSxoE7hN5hSYBrQEplFM1TA4kdyIxFzkykjUykJJavKR9/ZlbWzRvrnVNopRHye7XCIIRBL/zWc8/frxck5tUVlZIVVW1Lv6pptLuXbs03S4k4QeNKIcOHTU1bpu2tePOE4/FU7iosFAT9hBzDxmh0A85/Sn6QZIVyAoEgZTApOLlejgs8hkJf8jqR1w+SXrohzz+9TH7QICq0wnOb//55X9qgh6c4H5U8iN16jKSEAbap/tkdFLFc92BdfKP7f/QMMKHhj4k/dr3Sxt7Iwj5QRAYNeloQjkGgjBr1izN/pmsUUl08uTJqkWor2VTa5B4X0YQjCAEJomVXadhUqBwD2WDWazrNhgzefgnTZqkO/6GJpGbSExO0u++8MILWtyHTHuwdSYiNQDI5gcx4HNIAeWAqQUAISCjH7Y+939ggKTREQ5w6w+ul3lb5wkmh6NVRzVVrbXwEYCEFTUtksGdBmuOg/PanlerWmNDdxAVQWBss+CQaRJtHZkrIbSZNkyC+/bt09wNiQsRu15IPo6/6exc88HEkC7GLvnXypUrZd68eSk1CE628fxyhQTU9xuNIBhBSHcOBHIcE4lc/LBsdvnJCAIFeMiX3xBBSDyXftEQILQxHyDoIAX4JyBcmbgIQAgDxIGiQxQFgiBAWDA9oLWIWoOguxN2s5VHNLRtx9EdWnEytf4lkMeQ952QyIfKhIThkdvAaygeAEZFEFjQ33vvPV3UicbBREYZa/5mzGNeQ4uGxgxNGipxPuPdObjxHf9zHOMdDR6VMVGbu88hIKTD5nPOR63O8byStXwlCMgaijiB/Um8a6S8/Lj6KqDFpOYHRC5Za926jQwefJH07NlT/QyQN85cipkz10iDEQQjCKEtFkwSJpCaG06ckMqqKl2sP/3kEy20k8pHgWqAmATIW5AYnshkSrWA0xflh+kf3wJqBHANSAKNIj5MXEwLfEahoTvuuEO1CR9//LFWIMyGiaEu+K48sxGE0IalduxMOBCFTFtUBAHCu2DBArnhhht0waeOBcWp+HzOnDmnNG5UxsQPh/oUaAFYsDiHecj5LGoUryLyB4IwYcIErYTJQn/NNdeohoIiV7/97W9VG/fBBx9ocjFyiGAPr9vylSBAttatWycbvvlGKitOphuvqq5W82pFRWVKuabjrqDgFKFD9qhMa9JEE70NGNA/ZS6XTMeo3/OMIBhB8DuGkp7Pgo2Q2b59h1RXV6lfAgJq3/59urtPRQ7cJGKX1KnTGdKquFiaNW8mzZo2k3POOVvNB8nUnxAQyv0iMCEJ/E9VQbQRCxculD179ug1sQFCPCAKt956qxIEBG5JSYmqbrOhQQjlAVinoSMQFUHAR4ZrsVCzs2dsM4cwp1FjBCLcrl07TfuMfZsS3GjLmENunuGIi28OO1zU25ALxjz9cS5kgnkBSUDrxpyAMNPnjTfeKK4IViKo+UwQ1qxdK998szGlpsDr4OvZs4cMHDDACIJX4CyTYnLEcqlYU7I7RG35dWmpbNjwjdTU4LSYnqNP3b5g3DgkIsj69umjZYBTLeIITtSwO3fu1J0WpgR2PghTdlVoI/gMUkDVQWcHRIVLnxybayq+DOaLnRIRAlERBNT+S5cuVYKAuh8izPx/88035aabblKCwK4WMxqkF58aV6wKjQJjGnMemjUWfogDGjY+51z+ZwdLMhyIA9U1IR/OxEd2R1dO2wiCKOnSkMdjx9JyXkxnOCKveA7p+H6k019Qx5gGwTQIQY2lWv0wifbs3auLczoewA3dBOWgWdBxMrRFvCG07PsoEIiKIEAIyNGCGQySi4YAh1o0Y/jU4OzLAk44LyQCzV0iQXDmNwgAxAKSjCaB2iX4I2ALx4GXd3wdMO8RKuw87fmfeWcmhtMIBCHTkm2Gohi3Xq5hBMEIgpfx4unY+swInjr6/uCT2oTkpXoT++O6zvcBgcg5aAecIyPfuRhj/kY7Yc0Q8IpAVASBxR6b96pVq1SljSc8mjQ+Q2vA4s3ij1aAd2diY7yjWeA+8bk5//zzlUhgUoAY4ChHfhBIPN/Rz+eff66mOZKeQTTw18F513wQvI6OxnG8EQQjCI1jJCf8CoQfDokIR5KW4Kk9bdo0JQ2EPKJuxVObxEgIVWyu2Uxn2ugeQJ78oKgIAnBCEhjPLPqYGTCJuc/4G7MZ5AGym0jMOQbzBGY0tA6Mcwgzx3Cei3xAM8HnzBXn58B39MsrWctXH4Q8Gd76M40gGEEIfLy7qAXesakheIJKdUw/9WkREIjvvvuupijFhkpGReys7KCuuuoq3T0h2Mi4CGlALYvKlR1ZOtqJwMGyDmOLQJQEIRdByleCAHHCVwP50lD2VTQxmG0IYcRUAynD8ROn0DFjxqjsoeFEChFrqL+ox4ERBCMIgY45djFMHrIXMglweLr66qtVHYoTDipOp94njpjjXSgjf0MA+N/tltyOB1MBWgG8rElqBAFI1ohWeP/99zWEi+vRD//zOQ5dkAAiGJiQeGfzjg0XNSrXtWYIpItA1ASBuYFzLap/xjXku3PnzrrIpGMmc+fzHoRDXL4RBHBjwccJdPHixWrOIZcK4wD88eNAhhEdgiYGXxHkHuc4Mw4bFOQP/h3ItlGjRqm5569//asSCPJbpPMs0x2jfo8zgmAEwe8YqnU+qsy5c+eqChOvaUK0CJ8iioAJg02T8CkcrvgOe6nLfLh27VoVXByPvRVSABlgwhG3TR94ZZNlkWOSNUwGqFSvu+46VcFio8Uhi/hvJjDfQ2CY2IRuMYHpF/VrNsuqBvoQrLNIEIiaIDCn0IbNmDFD5wxkl7nBogJZwJkRssDccpE7aNAgERBk5iafszAxFzC1QdL5nt0w84D/+Zs+UpkWHLj5RhCQRy+//LLKMTYVI0aMUBlD/hXMPsgk5BOyBCxZ+MEaZ1Aiq3iBK88R/w/8PZBL4Ijs4zNkphEEb9P3kUcekYkTr9M8En5bwYkU7qd8bNUc/cIruqjDkGHYaAoQYC6umt0Pu3QmycUXX6xqfo7ncwQZizeMGk0BcdwINFRuCDNCvdAaIOjQDiAgkzVyoRPKRUEUiAFZG3G6ggw4Zy3n5AUhgCyg6UCDYH4I/p9/PvWQDYJAdMGHH36o0QrMD+YQCwvj3i3+LlEYn9HIf4AvDosYiz/RQJADzGvMReYXfTDHIAV8N3XqVP2uvpZvBAHZw05/ypQpuglhM0OSNYgaco0oEBw9wZONx6BBg5QooEVFi4CsQc4hd3r37i2LFi1SOUXKa8wQPB8yuhpB8CZFjCAkwStX8yCgYiMXAYsu7yzSJCBigjA5mEgIFjQDZHFjAqF2YxIx0bDL/eUvf1HVP41Jxg4H1g2pQIixmEMckjUYPOYNvLIRpPge0D9aC9g+n6Heo9/rr79ev0co5kIWRW/Two7ONgLZIAjsVp988kldiJhLkF/mFYs9ScDQmJEpkfkHiWZ8o2FA84DWjGRlzFHIBDthyDvEHHkCAacP0pDfcsstmo3RCMJpBMDrxRdfVO0k0R8QAvAFb56HS50MaWCxJ4ul83FCe8BGCA0qmx+0DZA9yBvyzQhCe8Uik2YEIUYEgd0H5gCECyyZokzsWJy9FCedbdu26QRi0mDHY9FngvEZGgScDNm9MOEgBthb2Q2RFRHmjq0ulQYBTRATDxUgAtElHoGVOy9t4OR/jkHbwY4LIWvNEPCCQDYIQqIGwS1IaMxmz56t8wzyy+KDZgENHnNq3LhxStQh1pghIAnMKeYizrnMAeYiqnHm4/PPP68ZGVP5+TiM8k2DwAYDeYZ2AJKFHHI+TmA9ZMgQ3eg8/vjjmuGSejIQCVJWcy7EAu0B2V45D7wxU/CMjCAYQfBUfKghQZWrGgQmAva0N954Qxd1dvKo5FD1Y25AKCGkWOCfeeYZ3d2jDWCBRuCxWLtiTuxyUKVCNBBanMcEZGKixkvVmHxoEhCW9aVORlDyiktltYbGhH0fLQLZIAgs9BDwn/3sZ7rYQIhZsPiMuYY2gPkECccfAU0cxADNAwuSIwg40TE3OAfSARGH3GNqoB7DvffeaxqEJMOJTQW+BRACdv5ocXCcZiMCMeOZoL1B9mCCQE7j1OgiFNik8GyQT8hAZB4NWUcfnJNL0VTmpPj9IDAfhOCEKyTBRSi4anAwbrebdzHYLg2s2927QiZ8z/k8k8SIB/p1cdm5lpI0OPSsp7ggEDVBYD6w04d4YxJzUTcQYjQGOL1BoNm9QhQIp2MRIrwXEgFxQM0NOWA+QhBQedMnfbGzxSyINu/nP/+5+SDEZSCGeJ9GEIwghDi8rGtDoPEiEDVBCAtJiAe7XEwVaNQwOyQSkFTXzTcTQ334u+ytrnyzC9kGW1eF1mW2ZEMUl6JwRhCMIIQld2r1y+TA69rFYPMluxlUcOxoMDWgnmM3hLcw/6Nus2YI5CoCjYUggK+LJmJ+EumQTk4QIwgnRyaYkZsCuYVDNtFQ5F6BNOCEzWc4k6KdefXVVzVSgc/ioAU1gmAEIRL5i3kAZygmCY6ImArmzZunntTY9PArwFaKapQoBhx6qEUfF6YdCYh2kZxCIEyC4Hb1OOyy48TRsKGoAq/guLLR5CLBFk6kET4J6S5cRhBOEwT8rjDxYM5hY/Poo4+qPxWmHzQyEydOVPlHqnfCtInWioNsM4JgBMGrXMnoeIQRiz8hQAg7CMLMmTPVsQfHKxwRCXMhfwJev/yNU1UcJlFGgNhJsUcgTIIAaSYygRh5dvM4sUGi0azxN5/hCMfOH7MA8wsnYIg4mjreWajYzfI9oXX8DxHgHPrAP4jfwPxjV8uOl7LPzk+B45l/+Apxjsuj4AiEEYTTQxhyRa4JwkTBETJwxRVXnEqzTDZZvuc54QtiBOE0doS74yhuYY5t2wYmFHM1iqG+H4hQIssi6jWEkItywPaJICKrGN7Y2O9wtiLvgRGEwIaMdRQwAmERBCJ0IMks6ghNnHfxlGeB5p0EOyzeLDqQbj7jWHIXMMdQb0MQ0MCx8BNRhAqcnSzaO45nnnEd+iSKgb5cdsBXXnlFNX1o9Ag3RtPHPXDNu+6665QmwwjC6QGFaZTMsMhltKIkZiOKhOcIduDI586UagTBCIKyRWL8yaCFyhzbXlAtjgQBXwOEG8KHHRLqONSnJBuhsSvCjkf8NZPLCEJQo8X6CQOBsAgCi8n8+fNVI8AuFJLsIhhYrCHShAIzb4hCcKl80co5DQI7WUgBMgdNBMmSOAdSQGQQGfxcsiTmIsl+SOrDNZmTZBslhh+/IH4n5IOoCPIkuKRmRhBOjyqeDzlaeG5obQhDRZPD5gcMWQeQZ2DLywiCEQQjCHWkMqo3Mr099dRTGn5FrDXCCQLFpCLMiuyGMG7yIhhBCGNZsz6DQiAsgsAiTsZPdvRoECAI5DNA1U9GREwNaN8g2+QtYNFmHkEOXAVV5hd2cUjDW2+9pUSD7yEHzEPs4PxPWnN+BwSBRQwtAepeTH7Y1Fnc0E5gQ4cg8LkRhOQjCIdEUjHzTCgMR84JSBykC60Om0T8PTDRoNlJ19cjqPGaST/mg2A+CJmMm4zPQejhqMMOxyVuIQ4b1RsCiJ0NGgZspfgnxGESZQyGnRhrBMIiCCzWLDZoC8gHgmaNhRvCjI8OCw8aREx1mONwLGShZ8GnQSiwc0O80S5AEJz/AIs7Jgb6hYjzPcfhewDJ4Bpk9aM5TR6Jf6655holLUYQUg9ZngW+CGx2IAUuYRvPD5LlPqOHXEuIlOpXGUEwghCpkGaHgyBj4efF/65+lkug5P43chDpo7GLeUQgTILAXGBhpqop8wBCjTkBOzYLPKYDFnd8eSDTOCImNjQFqLjRBmAKwLwAaUCzQL9oJMgECAnge/qAMGDaQ/OA+QE7Oosd/XCsI+44R9LMxOBxwMTwcCMIRhBiOGztlg2B7CMQJkHI/q9r+A6MIDSMUdyPMIJgBMHzGEZ1hsoMswA7HXYb7GhQY2JjQ3DgQ8COxzlYscMhBzkOOqhQXSIWHBcxMdAfu5vE5EhoEtgx0QfqOXLFo3rlWux0UOlhi+V7YsTpi/vhvqwZAmEjYARhh0yfPl0efvjhQKFm3uPch7/FPffcE2jf1pk3BIwgGEHwNGJYgMnrjh2UaomoQPHexUaJcxUhVUQiQA5Gjhyp75gUOAYnKBZzKpihMqUhZHG2YvHHlso5zhsbokHmMWytJB0hhwL2UsgFTlZ8T5+QDmynOFSRMhaHLFSs1gyBMBEwgmAEIczxlQt9G0EwguBpHOJJjfMUpU3ZybO4Y9+kYiN2zJdfflnDFyEExF0PGjRIHapIEoJ2AE0CfRCtwE4BT2lsm2gVcI66++67VfvAcewgFixYoGlKienmb0gESUhwqoIgoHVwVRmJ2+Z+uDe+z6WqaJ5AtoNjgYARBCMIsRioPm7SCIIRBE/DB3PA22+/rWWY2emzSLOzZwGHCLDIQxYI6yELHOE8EIK///3v0rdvX13McbK6/fbb1RxA5AILORoFyj//8pe/VHMB32HKoPQsGgO8r+mbhC4keeF7NBUkfkH7gPmCCAjIA8TFQiQ9PVY7OAMEjCAYQchg2MTqFCMIRhA8DVi0BQsXLtRysBAEwnrIFjZs2DD1tiakinhfPmMXTygjIVUs7hAGCAIe1NOmTdPrkqsc3wHCp4ghhiBgqnCN/jBLUF0OLQTmAwgJ3tX4O0AE8IGAuJDCmeQu3BfaBMvC6OnR2sEeETCCYATB45CJ3eFGEIwgeBq0EAK0ATfeeOOpAi/ER0MQCKmaMWOGLvY4F7J4s9ijASANKQs5ZAANAf4L+A4QUoVfAeYJzpk8ebJ+jj8BhANzBgs9mghIBsSADHHUvMffAC0D2gRq2EMK0Ejg90D/Fibp6dHawR4RMIJgBMHjkInd4UYQjCB4GrTOn4CYanwM0AjgtIi2gOiBZcuWqf8BqVr5HhMEmcXwM4AksMDjiEgsNqYAiAFaBI5j0YdkQBRIkgSxwA/BxYFzHbybIRhoEoh8QFPBcRAIiAXaDRwaie82HwRPj9YO9oiAEQQjCB6HTOwON4JgBMHToMWxkMWczG04IBLayA6eRZwFmYgFwg/Z9fPifxfqyOccw0LOOfzNi8/5H9MA/7uESdwY5/MZ/fM5GgjXN9/zP43PuCf8EtAe0Jc1QyBMBIwgGEEIc3zlQt9GEIwgeB6HLNpoEtAG5JIan3uCwHBf1gyBsBEwgmAEIewxlu3+jSAYQcj2GLTrGwKxRMAIghGEWA5cDzdtBMEIgoeTcOZCAAAT20lEQVThYocaAoaAQ8AIghGExj4bjCAYQWjsY9x+nyEQCgJGEIwghDKwcqhTIwgxJgiEF2JzJ1kQzoLWDAFDIDoEIAiE1ZI5lBwffho1RkgURu0BsorGoVmxpjg8JX/3aAQhpgSB+H+EE0mIxowZY7UH/M0DO9sQ8IwAYbdk9SSDJ8XD/DQjCKfRY9OzePFiKS0ttWJNfgZVAOc+8sgjcu2118rAgQMD6C15F3/72980vH38+PEZXYN7nDjxOhkwoH9G5yeeVHCC0Zek8TEJgEgLPHXqVN8XogP6pJgQiYDILkjcf1CN0EAyCpIzAAFFPgFrhoAhEB0CLGBLliyRSZMmqYDz04wg1CYIyM0VK1ZoxlbLZ+JnZGV+LuvX448/rhlq+/f3v/imuhMjCCEQBFcSlWyCVFJs06ZN5iPBzjQEDAHPCFBojGqmN910k2b+9NOMINQmCBAvEq5Rs8WVhveDr53rHQHCxiEIZLd11Xe999LwGUYQQiAIwI5wgmlTwCixfkHDj8SOMAQMAT8IkKCLLJ5lZWVK0P0m5jKCUJsgkEGVwmukdA9S8+rnmefbudS6+dOf/qQadTLlhtWMIIREEEhf/MYbb2gdBFRApooLawhbv4ZAbQSoIDp37lzdWVFIzG/CMCMItfGloBsp2H/84x/79u+wsZsZAt9++628+uqrcuutt0rnzp0z6ySNs4wghEQQyGg4Z84cad26tYwdO9a3kErjWdohhoAhICJbtmzRUuQTJkwIJOrACELtYUXK9AULFqhzHKXebfMT7bTDhI0JDVPPnXfeGWp2WiMIIREEhgwOkEwkbHXmhxDtJLKr5ScCCE8iiCgxjvNxUVGRbyCMINSGEGdxyruz+aEwm18Tju8HlGcdECX30ksvqeYAJ/gwCZoRhBAJAg9y9uzZSg6whVozBAyBcBE4cuSI/PGPf9TohfPOOy+QixlBqA0j2tGvvvpKUHMTxm1+CIEMs7Q7odru008/Lffdd5906tQp7fMyOdAIQogEgd0MkQyQBGxFfuOxM3nAdo4hkC8IUFEU0wIOXDfffLNWEQ2iGUH4IYqEcM+fP18uvPBCNTWEuYsN4hk2lj5wwH3ttdci23QaQQiRIDAoyYmwaNEizeEwYsQIY9uNZaba78gpBNjVrl27VpP4YFro0KFDYPdnBOGHUDo7OP4eqLlNixDYcEvZEQR4/fr1mgAs6DGe6qJGEEImCAB/7Ngx9UUgHvvSSy+1xEnhzyW7Qh4hADlAUwc5uPjii9W0EOSO1ghC8sFEGCmbHxYuUsr7zTeRR0PW80+FkO3atUvH+Lnnnqtam6A0ZPXdTN4TBHYdEydODJ0Bo5IjdpisioReWXZFz3PETjAEfoAAixPk4Ouvv5bevXvL+eefL82aNQsUKQjCs88+K3fffXcgURGB3lyKzsKqxZB4ORatgwcPqqkB8ymbnyCcQqPAJ27XwGxGaCmOoZDgqMhYXhMEHG2INCCfddgqMibT3r17lXEziSgiY0Wc4jZN7X5zCQHmFDH5qFwvuOACDbkLw6MegvDnP/9ZfvGLX0iXLl1yCYKU9xIFQXAXx3z67rvvqjzDjMoiZi04BCBh7733nnTs2DFyEpbXBIF84sSSokEI0mZZ39A4cOCAUOmRSYVaDi9UdjxBqkSDG5rWkyGQewigNWD+kK0Uks+iRFKksFSuGzdulBkzZsivfvUrFdJxaOQqeOGFF+SBBx6IRLYQPUL2StrQoUMVp6A1OXHAPah7hPwSBcdzhHxhViCkNMpNpauB1K5dO51jmbTYFmvix1LxjZhpCEKY2ajqAotwo5jT6tWrpW/fvtKnTx8lKJgdbFJlMgztnMaOAMKK6qiHDx+WrVu3ysqVK9W3h/Dhrl27hpqIjGu98sor8pvf/CY2pkFC4Qj3hCBEtaOHJKAhxXERuda9e3cpKSlRj/swNDuNccxTY4FMoGibcUhkjRo9erRGi0S9NhAxwbinxDmb2UxarAkCA/ntt99WIZONOu/btm3TsqkIPRpMjdr12JcwQ/Ae9aDIZBDYOYZA0AhACBCWOMLxjoMWix5CiznRrVs3NStEsaNCy/jWW2/Jgw8+GJqWImj88HnCb4KKi1GGVzufEEgVixzPB7kGSUCmObKSonBv0DDkfH9ojol0c+McXwPWAz7nueGv5rcaaaYgsJGFIODXg39JJi3WBIFsa5SRhqH17NkzElVcXZBRI1G3AbKA3ZBdEQySQYMgRDjytzVDIF8QQDgmLvxo1goLC1VtDYFG28eCE4VZjgUPLeOyZcvk/vvvj80jwG6NWYR000EljEr3xzv1OHINGQu5Q7uArKMuBjLNCMJJNDGL8WIsM8YZ1/i5UOAP7Us2N4iMIeo9YDJCg5FJizVBcB64TKAgirpkAqA7B0EEEYC1QRLYKfEZIVy8WzME8gkBJzgRkJQURpsGaXDCNCosWNRmzZqlJsDx48dHdVnf12FHyn0j1zIV7r5vQuSUDEOe8UKe8bJ2EgGIAaQJEwwvxjv/+y0wFgS+aIDefPNNGTlypEYIZdJiTRBYkMlPgBBg8pudLJMhYOcYAo0XAbR5jz76qPz617+OjYMiTwPZRvghCw6JjHJhwWm8o6Tx/TI0PDjnUnPjhhtuyNiJP9YEgcdK/DTqQ/wQ4uKh3PiGo/0iQyA3EVi6dKl89NFHcu+998bG/wAkXaZDHN3IumfF4nJzfOXqXaHlwbSGmYi1EfNHJi32BMGpUQjjIJrAmiFgCBgCIICQJO89GwfylkTh8xAk8ps2bZKFCxfK1Vdfrb4b1gyBdBHA1P3666+raWHYsGEZa6BiTxAwL2BmQBWHs6KZGdIdQnacIdC4EcBpmAQ1xJ/36tUrdj/WJdjBAfuiiy7KWMjH7ofbDftGgEqd5LVg40wOhkxb7AkCqjiYNiSBjIpxyZSW6QOz8wwBQ6BhBHCoI7UtYWeUNI4ql0DDd5b+EWhAPv/8cyETJFoEMzOkj10+H8nYJzspBHPs2LG+0mfHniAwENAizJ07V+0s48aNi5WtMZ8Hsv12QyAsBMi5gIMW6Zt5xdXJDxsynujk7+d3xM1MEtbztX5TI0BYKg6ul19+uZrd/YyZyAgCCY2wi+BRGUYDlKefflruuecezcxmzRAwBPITAcKKP/vsM80ISJbVOBdWQ4vw5Zdfaka+KVOmRFbkJz9HTvx/NRp1TAukeGbs+ym+RV+PPfaY5uLo16+fb3AKTqTInsHHONtQx2DSpEmhJY94//33NVsbXptxVCn6fgLWgSGQ5wgga5z2gAQxjcFxGbnJjrB///6qRQirZkWeD53Y/3zGPomtqP0wfPhw3wm20Myz6UYrT+ptv61egkCBI2xpkydP9sVq6rtJcr3DnlAnol4xkuD3kdr5hkB8EEBAkqIYx0S8t3HsawxOy2hE8LOiTsJll13mW20cnydqd5ouAox9VxgKUoxJyi+RxIfhueeeU9++ILJ51ksQPvtssWzYcDKmN8zSzAgICilRZRGQyOJmzRAwBBo/AuTAnzdvnpxxxhm6Qcg09jsXkYIkUBzuiy++0GgtCilZMwQcAiQEe+edd06N/SDWPbQRhAlPmHCN9OzZwzfY9RKEpUuXyfLlpaEnNIJJEd6E9y+shzKy2cyH7RtV68AQMATqRYA5T3pzTIykcyassTGRA/fj8UegPDbaBEgC+R38OKDZsGocCDD22RQTvUDVRj9+B4mIMM4wV4wfP0G6dfOfh6NeggD7Xbx4sdozwq5OhsCgeBKOkeQxHzJkiG91S+MYSvYrDIHGhwA2esKcEYwkRApKQOYiUqRgJjvk2rVrlSQQ1m0kIRefVDT3hNYM8z1mdWouBOmQu2rVKg0VhiB06XKW7x9UL0HYvHmLfPrpJ5q4IaqsYJAEBAdRDThtIDhsMvl+ztaBIZATCKB2J5MqqZTxN2KOBykgc+JHJrkJnMcwNWzYsEF/M4lwoi6ClavY5Mt9MfYJgSWdMs8ezQFluYNspaWlSkRHjRotnTp19N11vQSBicxijScudeCjWqjxSUCAcD3qYkMWqCwX1fV9o2odGAKGQC0EULVjc928ebNQq4A5jUMi8zpfGpoEtLLs8vC5wDGN9yBsz/mCYRx/J88d50EKMX3zzTeqQcLXLuixj7mCdZPUBGzqg/AbrJcgHD16TP7xjwVqG0QNGKVfAD9y+fLlCirXJ2SDCRXlPcRxMNo9GwK5hACmQ4QjCyPkgJ0Tmw1SEefjwsgukpS6aBOI4DrzzDN1A8Z7XBND5dJ4y6V7YexDiiGE5Pfgf541PnZhjH1MFzg9QkAGDx4iRUWZFXtKxLBegpBoOyMXQtRpQ7k+yZRgXThfoIpEsPCCfREOZVqFXJoSdi+GgAiLICp1hOOaNWt0QWSuUluBV0lJSd7DBDmAMCHbCCXHlApx6tGjh26I2AiZbIvXMIEAoCkrLy/X8EX8TsjvQXQeaxZjn119WM+VeYbT76WXXirnnttDWrRo7hvAegkCP5a86C+++KLcfPPNWcl2COgQBZyaUE3i+YngQaMAG8OGw+RiUvGOR3RYD8A32taBIdDIEEBGsNjhlc07LyKS0P5B6tktXXLJJRrih8+B7ZJPDwBkG3hhUoVIEcXFLnDgwIHq84U8cy/bDOXexHGEgGeIxts9yxUrVuhzxIwA6cPBnw2t3xwH9SHAvSxbtky+/vprzVtUWFgUDUGAyT711FMyaNAgjVPOdgMItApMJtQ2ZWVlSiD4HLUN94uwYhdjzRAwBMJDgEULYs4cpEHMIegIQwQjPgb54IAYJMLEsbPzhFxhmnFyLEXC2yAvbX1lgIDbjPLOuIfYQfD81lPweiusgZgX8EO4/vrrpaKiMjqCwIAlT/odd9yRU7HKMDaEE++odQAHoBxh8AqyHW8IGALpI4A2AJLAO8TAafHQFIS5W0r/DuN7pNOcIteQb8g0a7mHAOOcsc+LDWq2tNdo2F9//XV1TiSXUKQEAfXJjBkzdEeAutDUhLk3UO2ODAFDwBAwBPIPAbRM1E3CVIX2ALISKUGAzeKJSSnWW265RZ0urBkChoAhYAgYAoZAdhHA52fmzJlKDnCGRIsRKUHg5+OVPGvWLA2huPLKKy3cMLtjwq5uCBgChoAhkOcIYFafO3euRk9AEFyhs8gJAs+BMIrZs2drRANxu9YMAUPAEDAEDAFDIDsIECr7/PPPy/33318rMVJWCAJshbKstDFjxqitw5ohYAgYAoaAIWAIRIsA0XpUbiRtN86JiS0rBMFVXSSiAU/Jfv36makh2jFhVzMEDAFDwBDIcwSIbFmyZIk6JlLToW5a5awQBJ4Jtg4SFhH6SNGRbt265fmjsp9vCBgChoAhYAhEgwBrMKnLeV122WWawLBueGXWCAIQuBTMZP+67rrrAikKEQ20dhVDwBAwBAwBQyC+COALuGjRIk07QEbhZGkHskoQgJaoBtIek/Fr6tSpljEtvuPN7twQMAQMAUMgBgiQXZOESAMGDFCCkKp4YdYJAliS5Qsmc+TIkVO1rbOVSSoGz9Zu0RAwBAwBQ8AQ8IwA/n/4G8yfP1/9/4YMGVJvRcicIAj8SiIbqCBFymOKU2APsTSrnp+/nWAIGAKGgCFgCPwAAbT1hDNSIpz1lYiFhtbYnCEI/BrCLXBa3LZtm1ZYpFCFS9hgz9sQMAQMAUPAEDAEvCPA2kp1yI0bN6q/AYWgGiIHXCWnCIIzN1DbnDKvZ5999qlSzGZy8D4o7AxDwBAwBAyB/EXAmRRKS0vl0KFDWk2ZSpGpfA7qIpVzBIEbJPyCcqUffvih/ijsJBdeeKElVMrfcW6/3BAwBAwBQ8ADAhRHXLx4saxcuVJJweWXXy4dO3b0VCQxJwmCwwCbCTGaEAVKYP7kJz/xxH48YGmHGgKGgCFgCBgCsUeAdXPDhg0yb948oWT6VVddJT169MjIXJ/TBIEnhYrk8OHD6lhBJchevXpppSmYED+eNM1WNjr2Y9p+gCFgCBgChkAGCKBxJyMiUYB79uzRBIRUZhw6dKj6GhQWFv4gAVK6l8l5guB+iEvPjC0F8wOgUC66c+fOWhmSd5wu8FXgBWlwf6cLhh1nCBgChoAhYAjkGgKsfzU1Nbphdi80Bbt27dL1kHfCF4uKijQrMcSgQ4cOGROD01r8SmnRorlvOApOcNdJGh+zmKfrFNHQnZB9kSQPgEEmqN27d2v0AzmkARCAiouL9dWqVSvVMqS4tYYuZd8bAoaAIWAIGAJZRwDtACkAeOFbgMaAxt+sc1RFxs+gffv2uhamE6GQzo+KRINQWVUVuBnAEQ+A2r9/v5KGA/v3K2BHjx6To8dOgogW4cjhI+lgYccYAoaAVwQKsAN6PcmONwQMgXQRYJMrBSJFhYVSxOa3qFiKWxVLh/btpV1JiZSUlKipvWmTJiIFTMjgWk11TdgaBNGdfdjNqWC4VuLrhJyQEzUmwcLG3/o3BAwBQ8AQCB4B52PHe91XFOH/TZs28f2jUpoYfPdsHRgChoAhYAgYAoZAbBEwghDbR2c3bggYAoaAIWAIhIeAEYTwsLWeDQFDwBAwBAyB2CJgBCG2j85u3BAwBAwBQ8AQCA8BIwjhYWs9GwKGgCFgCBgCsUXACEJsH53duCFgCBgChoAhEB4CRhDCw9Z6NgQMAUPAEDAEYouAEYTYPjq7cUPAEDAEDAFDIDwEjCCEh631bAgYAoaAIWAIxBYBIwixfXR244aAIWAIGAKGQHgIGEEID1vr2RAwBAwBQ8AQiC0C/w87qO1A8QgNjAAAAABJRU5ErkJggg==;" vertex="1" parent="1">
          <mxGeometry x="-1030" y="70" width="1042.61" height="483.21" as="geometry" />
        </mxCell>
      </root>
    </mxGraphModel>
  </diagram>
</mxfile>
